<?xml version="1.0" encoding="utf-8" standalone="no"?>
<!DOCTYPE svg PUBLIC "-//W3C//DTD SVG 1.1//EN"
  "http://www.w3.org/Graphics/SVG/1.1/DTD/svg11.dtd">
<!-- Created with matplotlib (https://matplotlib.org/) -->
<svg height="248.899844pt" version="1.1" viewBox="0 0 377.607031 248.899844" width="377.607031pt" xmlns="http://www.w3.org/2000/svg" xmlns:xlink="http://www.w3.org/1999/xlink">
 <defs>
  <style type="text/css">
*{stroke-linecap:butt;stroke-linejoin:round;}
  </style>
 </defs>
 <g id="figure_1">
  <g id="patch_1">
   <path d="M 0 248.899844 
L 377.607031 248.899844 
L 377.607031 0 
L 0 0 
z
" style="fill:none;"/>
  </g>
  <g id="axes_1">
   <g id="patch_2">
    <path d="M 35.607031 224.64 
L 370.407031 224.64 
L 370.407031 7.2 
L 35.607031 7.2 
z
" style="fill:#ffffff;"/>
   </g>
   <g id="matplotlib.axis_1">
    <g id="xtick_1">
     <g id="line2d_1">
      <defs>
       <path d="M 0 0 
L 0 3.5 
" id="m4a18e26933" style="stroke:#000000;stroke-width:0.8;"/>
      </defs>
      <g>
       <use style="stroke:#000000;stroke-width:0.8;" x="50.825213" xlink:href="#m4a18e26933" y="224.64"/>
      </g>
     </g>
     <g id="text_1">
      <!-- 0 -->
      <defs>
       <path d="M 4.15625 35.296875 
Q 4.15625 48 6.765625 55.734375 
Q 9.375 63.484375 14.515625 67.671875 
Q 19.671875 71.875 27.484375 71.875 
Q 33.25 71.875 37.59375 69.546875 
Q 41.9375 67.234375 44.765625 62.859375 
Q 47.609375 58.5 49.21875 52.21875 
Q 50.828125 45.953125 50.828125 35.296875 
Q 50.828125 22.703125 48.234375 14.96875 
Q 45.65625 7.234375 40.5 3 
Q 35.359375 -1.21875 27.484375 -1.21875 
Q 17.140625 -1.21875 11.234375 6.203125 
Q 4.15625 15.140625 4.15625 35.296875 
z
M 13.1875 35.296875 
Q 13.1875 17.671875 17.3125 11.828125 
Q 21.4375 6 27.484375 6 
Q 33.546875 6 37.671875 11.859375 
Q 41.796875 17.71875 41.796875 35.296875 
Q 41.796875 52.984375 37.671875 58.78125 
Q 33.546875 64.59375 27.390625 64.59375 
Q 21.34375 64.59375 17.71875 59.46875 
Q 13.1875 52.9375 13.1875 35.296875 
z
" id="ArialMT-48"/>
      </defs>
      <g transform="translate(47.766697 239.513594)scale(0.11 -0.11)">
       <use xlink:href="#ArialMT-48"/>
      </g>
     </g>
    </g>
    <g id="xtick_2">
     <g id="line2d_2">
      <g>
       <use style="stroke:#000000;stroke-width:0.8;" x="112.312816" xlink:href="#m4a18e26933" y="224.64"/>
      </g>
     </g>
     <g id="text_2">
      <!-- 20 -->
      <defs>
       <path d="M 50.34375 8.453125 
L 50.34375 0 
L 3.03125 0 
Q 2.9375 3.171875 4.046875 6.109375 
Q 5.859375 10.9375 9.828125 15.625 
Q 13.8125 20.3125 21.34375 26.46875 
Q 33.015625 36.03125 37.109375 41.625 
Q 41.21875 47.21875 41.21875 52.203125 
Q 41.21875 57.421875 37.46875 61 
Q 33.734375 64.59375 27.734375 64.59375 
Q 21.390625 64.59375 17.578125 60.78125 
Q 13.765625 56.984375 13.71875 50.25 
L 4.6875 51.171875 
Q 5.609375 61.28125 11.65625 66.578125 
Q 17.71875 71.875 27.9375 71.875 
Q 38.234375 71.875 44.234375 66.15625 
Q 50.25 60.453125 50.25 52 
Q 50.25 47.703125 48.484375 43.546875 
Q 46.734375 39.40625 42.65625 34.8125 
Q 38.578125 30.21875 29.109375 22.21875 
Q 21.1875 15.578125 18.9375 13.203125 
Q 16.703125 10.84375 15.234375 8.453125 
z
" id="ArialMT-50"/>
      </defs>
      <g transform="translate(106.195785 239.513594)scale(0.11 -0.11)">
       <use xlink:href="#ArialMT-50"/>
       <use x="55.615234" xlink:href="#ArialMT-48"/>
      </g>
     </g>
    </g>
    <g id="xtick_3">
     <g id="line2d_3">
      <g>
       <use style="stroke:#000000;stroke-width:0.8;" x="173.80042" xlink:href="#m4a18e26933" y="224.64"/>
      </g>
     </g>
     <g id="text_3">
      <!-- 40 -->
      <defs>
       <path d="M 32.328125 0 
L 32.328125 17.140625 
L 1.265625 17.140625 
L 1.265625 25.203125 
L 33.9375 71.578125 
L 41.109375 71.578125 
L 41.109375 25.203125 
L 50.78125 25.203125 
L 50.78125 17.140625 
L 41.109375 17.140625 
L 41.109375 0 
z
M 32.328125 25.203125 
L 32.328125 57.46875 
L 9.90625 25.203125 
z
" id="ArialMT-52"/>
      </defs>
      <g transform="translate(167.683388 239.513594)scale(0.11 -0.11)">
       <use xlink:href="#ArialMT-52"/>
       <use x="55.615234" xlink:href="#ArialMT-48"/>
      </g>
     </g>
    </g>
    <g id="xtick_4">
     <g id="line2d_4">
      <g>
       <use style="stroke:#000000;stroke-width:0.8;" x="235.288023" xlink:href="#m4a18e26933" y="224.64"/>
      </g>
     </g>
     <g id="text_4">
      <!-- 60 -->
      <defs>
       <path d="M 49.75 54.046875 
L 41.015625 53.375 
Q 39.84375 58.546875 37.703125 60.890625 
Q 34.125 64.65625 28.90625 64.65625 
Q 24.703125 64.65625 21.53125 62.3125 
Q 17.390625 59.28125 14.984375 53.46875 
Q 12.59375 47.65625 12.5 36.921875 
Q 15.671875 41.75 20.265625 44.09375 
Q 24.859375 46.4375 29.890625 46.4375 
Q 38.671875 46.4375 44.84375 39.96875 
Q 51.03125 33.5 51.03125 23.25 
Q 51.03125 16.5 48.125 10.71875 
Q 45.21875 4.9375 40.140625 1.859375 
Q 35.0625 -1.21875 28.609375 -1.21875 
Q 17.625 -1.21875 10.6875 6.859375 
Q 3.765625 14.9375 3.765625 33.5 
Q 3.765625 54.25 11.421875 63.671875 
Q 18.109375 71.875 29.4375 71.875 
Q 37.890625 71.875 43.28125 67.140625 
Q 48.6875 62.40625 49.75 54.046875 
z
M 13.875 23.1875 
Q 13.875 18.65625 15.796875 14.5 
Q 17.71875 10.359375 21.1875 8.171875 
Q 24.65625 6 28.46875 6 
Q 34.03125 6 38.03125 10.484375 
Q 42.046875 14.984375 42.046875 22.703125 
Q 42.046875 30.125 38.078125 34.390625 
Q 34.125 38.671875 28.125 38.671875 
Q 22.171875 38.671875 18.015625 34.390625 
Q 13.875 30.125 13.875 23.1875 
z
" id="ArialMT-54"/>
      </defs>
      <g transform="translate(229.170992 239.513594)scale(0.11 -0.11)">
       <use xlink:href="#ArialMT-54"/>
       <use x="55.615234" xlink:href="#ArialMT-48"/>
      </g>
     </g>
    </g>
    <g id="xtick_5">
     <g id="line2d_5">
      <g>
       <use style="stroke:#000000;stroke-width:0.8;" x="296.775626" xlink:href="#m4a18e26933" y="224.64"/>
      </g>
     </g>
     <g id="text_5">
      <!-- 80 -->
      <defs>
       <path d="M 17.671875 38.8125 
Q 12.203125 40.828125 9.5625 44.53125 
Q 6.9375 48.25 6.9375 53.421875 
Q 6.9375 61.234375 12.546875 66.546875 
Q 18.171875 71.875 27.484375 71.875 
Q 36.859375 71.875 42.578125 66.421875 
Q 48.296875 60.984375 48.296875 53.171875 
Q 48.296875 48.1875 45.671875 44.5 
Q 43.0625 40.828125 37.75 38.8125 
Q 44.34375 36.671875 47.78125 31.875 
Q 51.21875 27.09375 51.21875 20.453125 
Q 51.21875 11.28125 44.71875 5.03125 
Q 38.234375 -1.21875 27.640625 -1.21875 
Q 17.046875 -1.21875 10.546875 5.046875 
Q 4.046875 11.328125 4.046875 20.703125 
Q 4.046875 27.6875 7.59375 32.390625 
Q 11.140625 37.109375 17.671875 38.8125 
z
M 15.921875 53.71875 
Q 15.921875 48.640625 19.1875 45.40625 
Q 22.46875 42.1875 27.6875 42.1875 
Q 32.765625 42.1875 36.015625 45.375 
Q 39.265625 48.578125 39.265625 53.21875 
Q 39.265625 58.0625 35.90625 61.359375 
Q 32.5625 64.65625 27.59375 64.65625 
Q 22.5625 64.65625 19.234375 61.421875 
Q 15.921875 58.203125 15.921875 53.71875 
z
M 13.09375 20.65625 
Q 13.09375 16.890625 14.875 13.375 
Q 16.65625 9.859375 20.171875 7.921875 
Q 23.6875 6 27.734375 6 
Q 34.03125 6 38.125 10.046875 
Q 42.234375 14.109375 42.234375 20.359375 
Q 42.234375 26.703125 38.015625 30.859375 
Q 33.796875 35.015625 27.4375 35.015625 
Q 21.234375 35.015625 17.15625 30.90625 
Q 13.09375 26.8125 13.09375 20.65625 
z
" id="ArialMT-56"/>
      </defs>
      <g transform="translate(290.658595 239.513594)scale(0.11 -0.11)">
       <use xlink:href="#ArialMT-56"/>
       <use x="55.615234" xlink:href="#ArialMT-48"/>
      </g>
     </g>
    </g>
    <g id="xtick_6">
     <g id="line2d_6">
      <g>
       <use style="stroke:#000000;stroke-width:0.8;" x="358.26323" xlink:href="#m4a18e26933" y="224.64"/>
      </g>
     </g>
     <g id="text_6">
      <!-- 100 -->
      <defs>
       <path d="M 37.25 0 
L 28.46875 0 
L 28.46875 56 
Q 25.296875 52.984375 20.140625 49.953125 
Q 14.984375 46.921875 10.890625 45.40625 
L 10.890625 53.90625 
Q 18.265625 57.375 23.78125 62.296875 
Q 29.296875 67.234375 31.59375 71.875 
L 37.25 71.875 
z
" id="ArialMT-49"/>
      </defs>
      <g transform="translate(349.087683 239.513594)scale(0.11 -0.11)">
       <use xlink:href="#ArialMT-49"/>
       <use x="55.615234" xlink:href="#ArialMT-48"/>
       <use x="111.230469" xlink:href="#ArialMT-48"/>
      </g>
     </g>
    </g>
   </g>
   <g id="matplotlib.axis_2">
    <g id="ytick_1">
     <g id="line2d_7">
      <defs>
       <path d="M 0 0 
L -3.5 0 
" id="m1249a02cd6" style="stroke:#000000;stroke-width:0.8;"/>
      </defs>
      <g>
       <use style="stroke:#000000;stroke-width:0.8;" x="35.607031" xlink:href="#m1249a02cd6" y="217.541677"/>
      </g>
     </g>
     <g id="text_7">
      <!-- 2.5 -->
      <defs>
       <path d="M 9.078125 0 
L 9.078125 10.015625 
L 19.09375 10.015625 
L 19.09375 0 
z
" id="ArialMT-46"/>
       <path d="M 4.15625 18.75 
L 13.375 19.53125 
Q 14.40625 12.796875 18.140625 9.390625 
Q 21.875 6 27.15625 6 
Q 33.5 6 37.890625 10.78125 
Q 42.28125 15.578125 42.28125 23.484375 
Q 42.28125 31 38.0625 35.34375 
Q 33.84375 39.703125 27 39.703125 
Q 22.75 39.703125 19.328125 37.765625 
Q 15.921875 35.84375 13.96875 32.765625 
L 5.71875 33.84375 
L 12.640625 70.609375 
L 48.25 70.609375 
L 48.25 62.203125 
L 19.671875 62.203125 
L 15.828125 42.96875 
Q 22.265625 47.46875 29.34375 47.46875 
Q 38.71875 47.46875 45.15625 40.96875 
Q 51.609375 34.46875 51.609375 24.265625 
Q 51.609375 14.546875 45.953125 7.46875 
Q 39.0625 -1.21875 27.15625 -1.21875 
Q 17.390625 -1.21875 11.203125 4.25 
Q 5.03125 9.71875 4.15625 18.75 
z
" id="ArialMT-53"/>
      </defs>
      <g transform="translate(13.317031 221.478473)scale(0.11 -0.11)">
       <use xlink:href="#ArialMT-50"/>
       <use x="55.615234" xlink:href="#ArialMT-46"/>
       <use x="83.398438" xlink:href="#ArialMT-53"/>
      </g>
     </g>
    </g>
    <g id="ytick_2">
     <g id="line2d_8">
      <g>
       <use style="stroke:#000000;stroke-width:0.8;" x="35.607031" xlink:href="#m1249a02cd6" y="192.605732"/>
      </g>
     </g>
     <g id="text_8">
      <!-- 5.0 -->
      <g transform="translate(13.317031 196.542529)scale(0.11 -0.11)">
       <use xlink:href="#ArialMT-53"/>
       <use x="55.615234" xlink:href="#ArialMT-46"/>
       <use x="83.398438" xlink:href="#ArialMT-48"/>
      </g>
     </g>
    </g>
    <g id="ytick_3">
     <g id="line2d_9">
      <g>
       <use style="stroke:#000000;stroke-width:0.8;" x="35.607031" xlink:href="#m1249a02cd6" y="167.669788"/>
      </g>
     </g>
     <g id="text_9">
      <!-- 7.5 -->
      <defs>
       <path d="M 4.734375 62.203125 
L 4.734375 70.65625 
L 51.078125 70.65625 
L 51.078125 63.8125 
Q 44.234375 56.546875 37.515625 44.484375 
Q 30.8125 32.421875 27.15625 19.671875 
Q 24.515625 10.6875 23.78125 0 
L 14.75 0 
Q 14.890625 8.453125 18.0625 20.40625 
Q 21.234375 32.375 27.171875 43.484375 
Q 33.109375 54.59375 39.796875 62.203125 
z
" id="ArialMT-55"/>
      </defs>
      <g transform="translate(13.317031 171.606585)scale(0.11 -0.11)">
       <use xlink:href="#ArialMT-55"/>
       <use x="55.615234" xlink:href="#ArialMT-46"/>
       <use x="83.398438" xlink:href="#ArialMT-53"/>
      </g>
     </g>
    </g>
    <g id="ytick_4">
     <g id="line2d_10">
      <g>
       <use style="stroke:#000000;stroke-width:0.8;" x="35.607031" xlink:href="#m1249a02cd6" y="142.733844"/>
      </g>
     </g>
     <g id="text_10">
      <!-- 10.0 -->
      <g transform="translate(7.2 146.670641)scale(0.11 -0.11)">
       <use xlink:href="#ArialMT-49"/>
       <use x="55.615234" xlink:href="#ArialMT-48"/>
       <use x="111.230469" xlink:href="#ArialMT-46"/>
       <use x="139.013672" xlink:href="#ArialMT-48"/>
      </g>
     </g>
    </g>
    <g id="ytick_5">
     <g id="line2d_11">
      <g>
       <use style="stroke:#000000;stroke-width:0.8;" x="35.607031" xlink:href="#m1249a02cd6" y="117.7979"/>
      </g>
     </g>
     <g id="text_11">
      <!-- 12.5 -->
      <g transform="translate(7.2 121.734697)scale(0.11 -0.11)">
       <use xlink:href="#ArialMT-49"/>
       <use x="55.615234" xlink:href="#ArialMT-50"/>
       <use x="111.230469" xlink:href="#ArialMT-46"/>
       <use x="139.013672" xlink:href="#ArialMT-53"/>
      </g>
     </g>
    </g>
    <g id="ytick_6">
     <g id="line2d_12">
      <g>
       <use style="stroke:#000000;stroke-width:0.8;" x="35.607031" xlink:href="#m1249a02cd6" y="92.861956"/>
      </g>
     </g>
     <g id="text_12">
      <!-- 15.0 -->
      <g transform="translate(7.2 96.798753)scale(0.11 -0.11)">
       <use xlink:href="#ArialMT-49"/>
       <use x="55.615234" xlink:href="#ArialMT-53"/>
       <use x="111.230469" xlink:href="#ArialMT-46"/>
       <use x="139.013672" xlink:href="#ArialMT-48"/>
      </g>
     </g>
    </g>
    <g id="ytick_7">
     <g id="line2d_13">
      <g>
       <use style="stroke:#000000;stroke-width:0.8;" x="35.607031" xlink:href="#m1249a02cd6" y="67.926012"/>
      </g>
     </g>
     <g id="text_13">
      <!-- 17.5 -->
      <g transform="translate(7.2 71.862808)scale(0.11 -0.11)">
       <use xlink:href="#ArialMT-49"/>
       <use x="55.615234" xlink:href="#ArialMT-55"/>
       <use x="111.230469" xlink:href="#ArialMT-46"/>
       <use x="139.013672" xlink:href="#ArialMT-53"/>
      </g>
     </g>
    </g>
    <g id="ytick_8">
     <g id="line2d_14">
      <g>
       <use style="stroke:#000000;stroke-width:0.8;" x="35.607031" xlink:href="#m1249a02cd6" y="42.990067"/>
      </g>
     </g>
     <g id="text_14">
      <!-- 20.0 -->
      <g transform="translate(7.2 46.926864)scale(0.11 -0.11)">
       <use xlink:href="#ArialMT-50"/>
       <use x="55.615234" xlink:href="#ArialMT-48"/>
       <use x="111.230469" xlink:href="#ArialMT-46"/>
       <use x="139.013672" xlink:href="#ArialMT-48"/>
      </g>
     </g>
    </g>
    <g id="ytick_9">
     <g id="line2d_15">
      <g>
       <use style="stroke:#000000;stroke-width:0.8;" x="35.607031" xlink:href="#m1249a02cd6" y="18.054123"/>
      </g>
     </g>
     <g id="text_15">
      <!-- 22.5 -->
      <g transform="translate(7.2 21.99092)scale(0.11 -0.11)">
       <use xlink:href="#ArialMT-50"/>
       <use x="55.615234" xlink:href="#ArialMT-50"/>
       <use x="111.230469" xlink:href="#ArialMT-46"/>
       <use x="139.013672" xlink:href="#ArialMT-53"/>
      </g>
     </g>
    </g>
   </g>
   <g id="line2d_16">
    <path clip-path="url(#p6d2b6d1750)" d="M 50.825213 123.297332 
L 53.899593 123.432776 
L 56.973973 123.837412 
L 60.048354 124.506235 
L 63.122734 125.431139 
L 66.197114 126.601256 
L 69.271494 128.003374 
L 72.345874 129.622405 
L 75.420254 131.441864 
L 78.494635 133.444332 
L 81.569015 135.611868 
L 84.643395 137.926376 
L 87.717775 140.369895 
L 90.792155 142.924837 
L 93.866535 145.574154 
L 96.940916 148.301469 
L 100.015296 151.091145 
L 103.089676 153.928337 
L 106.164056 156.798999 
L 109.238436 159.689891 
L 112.312816 162.588552 
L 115.387197 165.483278 
L 118.461577 168.363088 
L 121.535957 171.217683 
L 124.610337 174.037416 
L 127.684717 176.813248 
L 130.759097 179.536714 
L 133.833478 182.19989 
L 136.907858 184.79536 
L 139.982238 187.316185 
L 143.056618 189.75588 
L 146.130998 192.108385 
L 149.205378 194.368047 
L 152.279759 196.529598 
L 155.354139 198.588137 
L 158.428519 200.539117 
L 161.502899 202.378326 
L 164.577279 204.101881 
L 167.651659 205.706213 
L 170.72604 207.188057 
L 173.80042 208.544448 
L 176.8748 209.772708 
L 179.94918 210.870445 
L 183.02356 211.835544 
L 186.09794 212.666164 
L 189.172321 213.360733 
L 192.246701 213.917948 
L 195.321081 214.336767 
L 198.395461 214.616412 
L 201.469841 214.756364 
L 204.544221 214.756364 
L 207.618601 214.616412 
L 210.692982 214.336767 
L 213.767362 213.917948 
L 216.841742 213.360733 
L 219.916122 212.666164 
L 222.990502 211.835544 
L 226.064882 210.870445 
L 229.139263 209.772708 
L 232.213643 208.544448 
L 235.288023 207.188057 
L 238.362403 205.706213 
L 241.436783 204.101881 
L 244.511163 202.378326 
L 247.585544 200.539117 
L 250.659924 198.588137 
L 253.734304 196.529598 
L 256.808684 194.368047 
L 259.883064 192.108385 
L 262.957444 189.75588 
L 266.031825 187.316185 
L 269.106205 184.79536 
L 272.180585 182.19989 
L 275.254965 179.536714 
L 278.329345 176.813248 
L 281.403725 174.037416 
L 284.478106 171.217683 
L 287.552486 168.363088 
L 290.626866 165.483278 
L 293.701246 162.588552 
L 296.775626 159.689891 
L 299.850006 156.798999 
L 302.924387 153.928337 
L 305.998767 151.091145 
L 309.073147 148.301469 
L 312.147527 145.574154 
L 315.221907 142.924837 
L 318.296287 140.369895 
L 321.370668 137.926376 
L 324.445048 135.611868 
L 327.519428 133.444332 
L 330.593808 131.441864 
L 333.668188 129.622405 
L 336.742568 128.003374 
L 339.816949 126.601256 
L 342.891329 125.431139 
L 345.965709 124.506235 
L 349.040089 123.837412 
L 352.114469 123.432776 
L 355.188849 123.297332 
" style="fill:none;stroke:#016e82;stroke-linecap:square;stroke-width:1.5;"/>
   </g>
   <g id="line2d_17">
    <path clip-path="url(#p6d2b6d1750)" d="M 50.825213 85.510561 
L 53.899593 85.615814 
L 56.973973 85.930409 
L 60.048354 86.450894 
L 63.122734 87.171664 
L 66.197114 88.085163 
L 69.271494 89.18214 
L 72.345874 90.451939 
L 75.420254 91.882811 
L 78.494635 93.462203 
L 81.569015 95.17704 
L 84.643395 97.013968 
L 87.717775 98.95957 
L 90.792155 101.000533 
L 93.866535 103.123785 
L 96.940916 105.316603 
L 100.015296 107.56668 
L 103.089676 109.862183 
L 106.164056 112.191778 
L 109.238436 114.544648 
L 112.312816 116.910497 
L 115.387197 119.279546 
L 118.461577 121.642519 
L 121.535957 123.990633 
L 124.610337 126.31558 
L 127.684717 128.609505 
L 130.759097 130.864993 
L 133.833478 133.075045 
L 136.907858 135.233065 
L 139.982238 137.33284 
L 143.056618 139.368525 
L 146.130998 141.334628 
L 149.205378 143.226 
L 152.279759 145.037816 
L 155.354139 146.76557 
L 158.428519 148.405063 
L 161.502899 149.952392 
L 164.577279 151.403947 
L 167.651659 152.756399 
L 170.72604 154.006695 
L 173.80042 155.152055 
L 176.8748 156.189965 
L 179.94918 157.118172 
L 183.02356 157.934682 
L 186.09794 158.637758 
L 189.172321 159.225914 
L 192.246701 159.697916 
L 195.321081 160.052778 
L 198.395461 160.289762 
L 201.469841 160.408377 
L 204.544221 160.408377 
L 207.618601 160.289762 
L 210.692982 160.052778 
L 213.767362 159.697916 
L 216.841742 159.225914 
L 219.916122 158.637758 
L 222.990502 157.934682 
L 226.064882 157.118172 
L 229.139263 156.189965 
L 232.213643 155.152055 
L 235.288023 154.006695 
L 238.362403 152.756399 
L 241.436783 151.403947 
L 244.511163 149.952392 
L 247.585544 148.405063 
L 250.659924 146.76557 
L 253.734304 145.037816 
L 256.808684 143.226 
L 259.883064 141.334628 
L 262.957444 139.368525 
L 266.031825 137.33284 
L 269.106205 135.233065 
L 272.180585 133.075045 
L 275.254965 130.864993 
L 278.329345 128.609505 
L 281.403725 126.31558 
L 284.478106 123.990633 
L 287.552486 121.642519 
L 290.626866 119.279546 
L 293.701246 116.910497 
L 296.775626 114.544648 
L 299.850006 112.191778 
L 302.924387 109.862183 
L 305.998767 107.56668 
L 309.073147 105.316603 
L 312.147527 103.123785 
L 315.221907 101.000533 
L 318.296287 98.95957 
L 321.370668 97.013968 
L 324.445048 95.17704 
L 327.519428 93.462203 
L 330.593808 91.882811 
L 333.668188 90.451939 
L 336.742568 89.18214 
L 339.816949 88.085163 
L 342.891329 87.171664 
L 345.965709 86.450894 
L 349.040089 85.930409 
L 352.114469 85.615814 
L 355.188849 85.510561 
" style="fill:none;stroke:#333795;stroke-linecap:square;stroke-width:1.5;"/>
   </g>
   <g id="line2d_18">
    <path clip-path="url(#p6d2b6d1750)" d="M 50.825213 50.016348 
L 53.899593 50.091092 
L 56.973973 50.314699 
L 60.048354 50.685306 
L 63.122734 51.199855 
L 66.197114 51.854159 
L 69.271494 52.642999 
L 72.345874 53.560227 
L 75.420254 54.598898 
L 78.494635 55.751397 
L 81.569015 57.009577 
L 84.643395 58.364886 
L 87.717775 59.808496 
L 90.792155 61.331414 
L 93.866535 62.924576 
L 96.940916 64.578942 
L 100.015296 66.285557 
L 103.089676 68.035618 
L 106.164056 69.820511 
L 109.238436 71.631856 
L 112.312816 73.461527 
L 115.387197 75.301671 
L 118.461577 77.144724 
L 121.535957 78.983416 
L 124.610337 80.810777 
L 127.684717 82.620137 
L 130.759097 84.405126 
L 133.833478 86.15967 
L 136.907858 87.877989 
L 139.982238 89.554591 
L 143.056618 91.184269 
L 146.130998 92.762098 
L 149.205378 94.283424 
L 152.279759 95.743867 
L 155.354139 97.139311 
L 158.428519 98.465901 
L 161.502899 99.720043 
L 164.577279 100.898395 
L 167.651659 101.997865 
L 170.72604 103.015612 
L 173.80042 103.949038 
L 176.8748 104.795788 
L 179.94918 105.553751 
L 183.02356 106.221052 
L 186.09794 106.796053 
L 189.172321 107.277356 
L 192.246701 107.663794 
L 195.321081 107.954436 
L 198.395461 108.148585 
L 201.469841 108.245776 
L 204.544221 108.245776 
L 207.618601 108.148585 
L 210.692982 107.954436 
L 213.767362 107.663794 
L 216.841742 107.277356 
L 219.916122 106.796053 
L 222.990502 106.221052 
L 226.064882 105.553751 
L 229.139263 104.795788 
L 232.213643 103.949038 
L 235.288023 103.015612 
L 238.362403 101.997865 
L 241.436783 100.898395 
L 244.511163 99.720043 
L 247.585544 98.465901 
L 250.659924 97.139311 
L 253.734304 95.743867 
L 256.808684 94.283424 
L 259.883064 92.762098 
L 262.957444 91.184269 
L 266.031825 89.554591 
L 269.106205 87.877989 
L 272.180585 86.15967 
L 275.254965 84.405126 
L 278.329345 82.620137 
L 281.403725 80.810777 
L 284.478106 78.983416 
L 287.552486 77.144724 
L 290.626866 75.301671 
L 293.701246 73.461527 
L 296.775626 71.631856 
L 299.850006 69.820511 
L 302.924387 68.035618 
L 305.998767 66.285557 
L 309.073147 64.578942 
L 312.147527 62.924576 
L 315.221907 61.331414 
L 318.296287 59.808496 
L 321.370668 58.364886 
L 324.445048 57.009577 
L 327.519428 55.751397 
L 330.593808 54.598898 
L 333.668188 53.560227 
L 336.742568 52.642999 
L 339.816949 51.854159 
L 342.891329 51.199855 
L 345.965709 50.685306 
L 349.040089 50.314699 
L 352.114469 50.091092 
L 355.188849 50.016348 
" style="fill:none;stroke:#2e5eac;stroke-linecap:square;stroke-width:1.5;"/>
   </g>
   <g id="line2d_19">
    <path clip-path="url(#p6d2b6d1750)" d="M 50.825213 17.083636 
L 53.899593 17.127397 
L 56.973973 17.258597 
L 60.048354 17.47697 
L 63.122734 17.782026 
L 66.197114 18.172987 
L 69.271494 18.648714 
L 72.345874 19.207639 
L 75.420254 19.847709 
L 78.494635 20.566348 
L 81.569015 21.360443 
L 84.643395 22.226358 
L 87.717775 23.159966 
L 90.792155 24.156693 
L 93.866535 25.211579 
L 96.940916 26.319345 
L 100.015296 27.474459 
L 103.089676 28.671202 
L 106.164056 29.903729 
L 109.238436 31.166128 
L 112.312816 32.452467 
L 115.387197 33.756839 
L 118.461577 35.073402 
L 121.535957 36.396405 
L 124.610337 37.720219 
L 127.684717 39.039357 
L 130.759097 40.348489 
L 133.833478 41.642462 
L 136.907858 42.916306 
L 139.982238 44.165242 
L 143.056618 45.384696 
L 146.130998 46.570297 
L 149.205378 47.717884 
L 152.279759 48.823509 
L 155.354139 49.883441 
L 158.428519 50.894165 
L 161.502899 51.852382 
L 164.577279 52.755015 
L 167.651659 53.599206 
L 170.72604 54.382316 
L 173.80042 55.101925 
L 176.8748 55.755837 
L 179.94918 56.342072 
L 183.02356 56.858872 
L 186.09794 57.304699 
L 189.172321 57.678235 
L 192.246701 57.978382 
L 195.321081 58.204261 
L 198.395461 58.355212 
L 201.469841 58.430798 
L 204.544221 58.430798 
L 207.618601 58.355212 
L 210.692982 58.204261 
L 213.767362 57.978382 
L 216.841742 57.678235 
L 219.916122 57.304699 
L 222.990502 56.858872 
L 226.064882 56.342072 
L 229.139263 55.755837 
L 232.213643 55.101925 
L 235.288023 54.382316 
L 238.362403 53.599206 
L 241.436783 52.755015 
L 244.511163 51.852382 
L 247.585544 50.894165 
L 250.659924 49.883441 
L 253.734304 48.823509 
L 256.808684 47.717884 
L 259.883064 46.570297 
L 262.957444 45.384696 
L 266.031825 44.165242 
L 269.106205 42.916306 
L 272.180585 41.642462 
L 275.254965 40.348489 
L 278.329345 39.039357 
L 281.403725 37.720219 
L 284.478106 36.396405 
L 287.552486 35.073402 
L 290.626866 33.756839 
L 293.701246 32.452467 
L 296.775626 31.166128 
L 299.850006 29.903729 
L 302.924387 28.671202 
L 305.998767 27.474459 
L 309.073147 26.319345 
L 312.147527 25.211579 
L 315.221907 24.156693 
L 318.296287 23.159966 
L 321.370668 22.226358 
L 324.445048 21.360443 
L 327.519428 20.566348 
L 330.593808 19.847709 
L 333.668188 19.207639 
L 336.742568 18.648714 
L 339.816949 18.172987 
L 342.891329 17.782026 
L 345.965709 17.47697 
L 349.040089 17.258597 
L 352.114469 17.127397 
L 355.188849 17.083636 
" style="fill:none;stroke:#4498d3;stroke-linecap:square;stroke-width:1.5;"/>
   </g>
   <g id="patch_3">
    <path d="M 35.607031 224.64 
L 35.607031 7.2 
" style="fill:none;stroke:#000000;stroke-linecap:square;stroke-linejoin:miter;stroke-width:0.8;"/>
   </g>
   <g id="patch_4">
    <path d="M 370.407031 224.64 
L 370.407031 7.2 
" style="fill:none;stroke:#000000;stroke-linecap:square;stroke-linejoin:miter;stroke-width:0.8;"/>
   </g>
   <g id="patch_5">
    <path d="M 35.607031 224.64 
L 370.407031 224.64 
" style="fill:none;stroke:#000000;stroke-linecap:square;stroke-linejoin:miter;stroke-width:0.8;"/>
   </g>
   <g id="patch_6">
    <path d="M 35.607031 7.2 
L 370.407031 7.2 
" style="fill:none;stroke:#000000;stroke-linecap:square;stroke-linejoin:miter;stroke-width:0.8;"/>
   </g>
  </g>
 </g>
 <defs>
  <clipPath id="p6d2b6d1750">
   <rect height="217.44" width="334.8" x="35.607031" y="7.2"/>
  </clipPath>
 </defs>
</svg>
