<?xml version="1.0" encoding="utf-8" standalone="no"?>
<!DOCTYPE svg PUBLIC "-//W3C//DTD SVG 1.1//EN"
  "http://www.w3.org/Graphics/SVG/1.1/DTD/svg11.dtd">
<!-- Created with matplotlib (https://matplotlib.org/) -->
<svg height="280.8325pt" version="1.1" viewBox="0 0 427.995 280.8325" width="427.995pt" xmlns="http://www.w3.org/2000/svg" xmlns:xlink="http://www.w3.org/1999/xlink">
 <defs>
  <style type="text/css">
*{stroke-linecap:butt;stroke-linejoin:round;}
  </style>
 </defs>
 <g id="figure_1">
  <g id="patch_1">
   <path d="M 0 280.8325 
L 427.995 280.8325 
L 427.995 0 
L 0 0 
z
" style="fill:none;"/>
  </g>
  <g id="axes_1">
   <g id="patch_2">
    <path d="M 31.995 252 
L 420.795 252 
L 420.795 7.2 
L 31.995 7.2 
z
" style="fill:#ffffff;"/>
   </g>
   <g id="matplotlib.axis_1">
    <g id="xtick_1">
     <g id="line2d_1">
      <defs>
       <path d="M 0 0 
L 0 3.5 
" id="m0c635448e0" style="stroke:#000000;stroke-width:0.8;"/>
      </defs>
      <g>
       <use style="stroke:#000000;stroke-width:0.8;" x="49.667727" xlink:href="#m0c635448e0" y="252"/>
      </g>
     </g>
     <g id="text_1">
      <!-- 0 -->
      <defs>
       <path d="M 4.15625 35.296875 
Q 4.15625 48 6.765625 55.734375 
Q 9.375 63.484375 14.515625 67.671875 
Q 19.671875 71.875 27.484375 71.875 
Q 33.25 71.875 37.59375 69.546875 
Q 41.9375 67.234375 44.765625 62.859375 
Q 47.609375 58.5 49.21875 52.21875 
Q 50.828125 45.953125 50.828125 35.296875 
Q 50.828125 22.703125 48.234375 14.96875 
Q 45.65625 7.234375 40.5 3 
Q 35.359375 -1.21875 27.484375 -1.21875 
Q 17.140625 -1.21875 11.234375 6.203125 
Q 4.15625 15.140625 4.15625 35.296875 
z
M 13.1875 35.296875 
Q 13.1875 17.671875 17.3125 11.828125 
Q 21.4375 6 27.484375 6 
Q 33.546875 6 37.671875 11.859375 
Q 41.796875 17.71875 41.796875 35.296875 
Q 41.796875 52.984375 37.671875 58.78125 
Q 33.546875 64.59375 27.390625 64.59375 
Q 21.34375 64.59375 17.71875 59.46875 
Q 13.1875 52.9375 13.1875 35.296875 
z
" id="ArialMT-48"/>
      </defs>
      <g transform="translate(45.218977 270.4525)scale(0.16 -0.16)">
       <use xlink:href="#ArialMT-48"/>
      </g>
     </g>
    </g>
    <g id="xtick_2">
     <g id="line2d_2">
      <g>
       <use style="stroke:#000000;stroke-width:0.8;" x="121.072686" xlink:href="#m0c635448e0" y="252"/>
      </g>
     </g>
     <g id="text_2">
      <!-- 20 -->
      <defs>
       <path d="M 50.34375 8.453125 
L 50.34375 0 
L 3.03125 0 
Q 2.9375 3.171875 4.046875 6.109375 
Q 5.859375 10.9375 9.828125 15.625 
Q 13.8125 20.3125 21.34375 26.46875 
Q 33.015625 36.03125 37.109375 41.625 
Q 41.21875 47.21875 41.21875 52.203125 
Q 41.21875 57.421875 37.46875 61 
Q 33.734375 64.59375 27.734375 64.59375 
Q 21.390625 64.59375 17.578125 60.78125 
Q 13.765625 56.984375 13.71875 50.25 
L 4.6875 51.171875 
Q 5.609375 61.28125 11.65625 66.578125 
Q 17.71875 71.875 27.9375 71.875 
Q 38.234375 71.875 44.234375 66.15625 
Q 50.25 60.453125 50.25 52 
Q 50.25 47.703125 48.484375 43.546875 
Q 46.734375 39.40625 42.65625 34.8125 
Q 38.578125 30.21875 29.109375 22.21875 
Q 21.1875 15.578125 18.9375 13.203125 
Q 16.703125 10.84375 15.234375 8.453125 
z
" id="ArialMT-50"/>
      </defs>
      <g transform="translate(112.175186 270.4525)scale(0.16 -0.16)">
       <use xlink:href="#ArialMT-50"/>
       <use x="55.615234" xlink:href="#ArialMT-48"/>
      </g>
     </g>
    </g>
    <g id="xtick_3">
     <g id="line2d_3">
      <g>
       <use style="stroke:#000000;stroke-width:0.8;" x="192.477645" xlink:href="#m0c635448e0" y="252"/>
      </g>
     </g>
     <g id="text_3">
      <!-- 40 -->
      <defs>
       <path d="M 32.328125 0 
L 32.328125 17.140625 
L 1.265625 17.140625 
L 1.265625 25.203125 
L 33.9375 71.578125 
L 41.109375 71.578125 
L 41.109375 25.203125 
L 50.78125 25.203125 
L 50.78125 17.140625 
L 41.109375 17.140625 
L 41.109375 0 
z
M 32.328125 25.203125 
L 32.328125 57.46875 
L 9.90625 25.203125 
z
" id="ArialMT-52"/>
      </defs>
      <g transform="translate(183.580145 270.4525)scale(0.16 -0.16)">
       <use xlink:href="#ArialMT-52"/>
       <use x="55.615234" xlink:href="#ArialMT-48"/>
      </g>
     </g>
    </g>
    <g id="xtick_4">
     <g id="line2d_4">
      <g>
       <use style="stroke:#000000;stroke-width:0.8;" x="263.882603" xlink:href="#m0c635448e0" y="252"/>
      </g>
     </g>
     <g id="text_4">
      <!-- 60 -->
      <defs>
       <path d="M 49.75 54.046875 
L 41.015625 53.375 
Q 39.84375 58.546875 37.703125 60.890625 
Q 34.125 64.65625 28.90625 64.65625 
Q 24.703125 64.65625 21.53125 62.3125 
Q 17.390625 59.28125 14.984375 53.46875 
Q 12.59375 47.65625 12.5 36.921875 
Q 15.671875 41.75 20.265625 44.09375 
Q 24.859375 46.4375 29.890625 46.4375 
Q 38.671875 46.4375 44.84375 39.96875 
Q 51.03125 33.5 51.03125 23.25 
Q 51.03125 16.5 48.125 10.71875 
Q 45.21875 4.9375 40.140625 1.859375 
Q 35.0625 -1.21875 28.609375 -1.21875 
Q 17.625 -1.21875 10.6875 6.859375 
Q 3.765625 14.9375 3.765625 33.5 
Q 3.765625 54.25 11.421875 63.671875 
Q 18.109375 71.875 29.4375 71.875 
Q 37.890625 71.875 43.28125 67.140625 
Q 48.6875 62.40625 49.75 54.046875 
z
M 13.875 23.1875 
Q 13.875 18.65625 15.796875 14.5 
Q 17.71875 10.359375 21.1875 8.171875 
Q 24.65625 6 28.46875 6 
Q 34.03125 6 38.03125 10.484375 
Q 42.046875 14.984375 42.046875 22.703125 
Q 42.046875 30.125 38.078125 34.390625 
Q 34.125 38.671875 28.125 38.671875 
Q 22.171875 38.671875 18.015625 34.390625 
Q 13.875 30.125 13.875 23.1875 
z
" id="ArialMT-54"/>
      </defs>
      <g transform="translate(254.985103 270.4525)scale(0.16 -0.16)">
       <use xlink:href="#ArialMT-54"/>
       <use x="55.615234" xlink:href="#ArialMT-48"/>
      </g>
     </g>
    </g>
    <g id="xtick_5">
     <g id="line2d_5">
      <g>
       <use style="stroke:#000000;stroke-width:0.8;" x="335.287562" xlink:href="#m0c635448e0" y="252"/>
      </g>
     </g>
     <g id="text_5">
      <!-- 80 -->
      <defs>
       <path d="M 17.671875 38.8125 
Q 12.203125 40.828125 9.5625 44.53125 
Q 6.9375 48.25 6.9375 53.421875 
Q 6.9375 61.234375 12.546875 66.546875 
Q 18.171875 71.875 27.484375 71.875 
Q 36.859375 71.875 42.578125 66.421875 
Q 48.296875 60.984375 48.296875 53.171875 
Q 48.296875 48.1875 45.671875 44.5 
Q 43.0625 40.828125 37.75 38.8125 
Q 44.34375 36.671875 47.78125 31.875 
Q 51.21875 27.09375 51.21875 20.453125 
Q 51.21875 11.28125 44.71875 5.03125 
Q 38.234375 -1.21875 27.640625 -1.21875 
Q 17.046875 -1.21875 10.546875 5.046875 
Q 4.046875 11.328125 4.046875 20.703125 
Q 4.046875 27.6875 7.59375 32.390625 
Q 11.140625 37.109375 17.671875 38.8125 
z
M 15.921875 53.71875 
Q 15.921875 48.640625 19.1875 45.40625 
Q 22.46875 42.1875 27.6875 42.1875 
Q 32.765625 42.1875 36.015625 45.375 
Q 39.265625 48.578125 39.265625 53.21875 
Q 39.265625 58.0625 35.90625 61.359375 
Q 32.5625 64.65625 27.59375 64.65625 
Q 22.5625 64.65625 19.234375 61.421875 
Q 15.921875 58.203125 15.921875 53.71875 
z
M 13.09375 20.65625 
Q 13.09375 16.890625 14.875 13.375 
Q 16.65625 9.859375 20.171875 7.921875 
Q 23.6875 6 27.734375 6 
Q 34.03125 6 38.125 10.046875 
Q 42.234375 14.109375 42.234375 20.359375 
Q 42.234375 26.703125 38.015625 30.859375 
Q 33.796875 35.015625 27.4375 35.015625 
Q 21.234375 35.015625 17.15625 30.90625 
Q 13.09375 26.8125 13.09375 20.65625 
z
" id="ArialMT-56"/>
      </defs>
      <g transform="translate(326.390062 270.4525)scale(0.16 -0.16)">
       <use xlink:href="#ArialMT-56"/>
       <use x="55.615234" xlink:href="#ArialMT-48"/>
      </g>
     </g>
    </g>
    <g id="xtick_6">
     <g id="line2d_6">
      <g>
       <use style="stroke:#000000;stroke-width:0.8;" x="406.692521" xlink:href="#m0c635448e0" y="252"/>
      </g>
     </g>
     <g id="text_6">
      <!-- 100 -->
      <defs>
       <path d="M 37.25 0 
L 28.46875 0 
L 28.46875 56 
Q 25.296875 52.984375 20.140625 49.953125 
Q 14.984375 46.921875 10.890625 45.40625 
L 10.890625 53.90625 
Q 18.265625 57.375 23.78125 62.296875 
Q 29.296875 67.234375 31.59375 71.875 
L 37.25 71.875 
z
" id="ArialMT-49"/>
      </defs>
      <g transform="translate(393.346271 270.4525)scale(0.16 -0.16)">
       <use xlink:href="#ArialMT-49"/>
       <use x="55.615234" xlink:href="#ArialMT-48"/>
       <use x="111.230469" xlink:href="#ArialMT-48"/>
      </g>
     </g>
    </g>
   </g>
   <g id="matplotlib.axis_2">
    <g id="ytick_1">
     <g id="line2d_7">
      <defs>
       <path d="M 0 0 
L -3.5 0 
" id="mcb6b17693f" style="stroke:#000000;stroke-width:0.8;"/>
      </defs>
      <g>
       <use style="stroke:#000000;stroke-width:0.8;" x="31.995" xlink:href="#mcb6b17693f" y="215.934931"/>
      </g>
     </g>
     <g id="text_7">
      <!-- 5 -->
      <defs>
       <path d="M 4.15625 18.75 
L 13.375 19.53125 
Q 14.40625 12.796875 18.140625 9.390625 
Q 21.875 6 27.15625 6 
Q 33.5 6 37.890625 10.78125 
Q 42.28125 15.578125 42.28125 23.484375 
Q 42.28125 31 38.0625 35.34375 
Q 33.84375 39.703125 27 39.703125 
Q 22.75 39.703125 19.328125 37.765625 
Q 15.921875 35.84375 13.96875 32.765625 
L 5.71875 33.84375 
L 12.640625 70.609375 
L 48.25 70.609375 
L 48.25 62.203125 
L 19.671875 62.203125 
L 15.828125 42.96875 
Q 22.265625 47.46875 29.34375 47.46875 
Q 38.71875 47.46875 45.15625 40.96875 
Q 51.609375 34.46875 51.609375 24.265625 
Q 51.609375 14.546875 45.953125 7.46875 
Q 39.0625 -1.21875 27.15625 -1.21875 
Q 17.390625 -1.21875 11.203125 4.25 
Q 5.03125 9.71875 4.15625 18.75 
z
" id="ArialMT-53"/>
      </defs>
      <g transform="translate(16.0975 221.661181)scale(0.16 -0.16)">
       <use xlink:href="#ArialMT-53"/>
      </g>
     </g>
    </g>
    <g id="ytick_2">
     <g id="line2d_8">
      <g>
       <use style="stroke:#000000;stroke-width:0.8;" x="31.995" xlink:href="#mcb6b17693f" y="159.787772"/>
      </g>
     </g>
     <g id="text_8">
      <!-- 10 -->
      <g transform="translate(7.2 165.514022)scale(0.16 -0.16)">
       <use xlink:href="#ArialMT-49"/>
       <use x="55.615234" xlink:href="#ArialMT-48"/>
      </g>
     </g>
    </g>
    <g id="ytick_3">
     <g id="line2d_9">
      <g>
       <use style="stroke:#000000;stroke-width:0.8;" x="31.995" xlink:href="#mcb6b17693f" y="103.640612"/>
      </g>
     </g>
     <g id="text_9">
      <!-- 15 -->
      <g transform="translate(7.2 109.366862)scale(0.16 -0.16)">
       <use xlink:href="#ArialMT-49"/>
       <use x="55.615234" xlink:href="#ArialMT-53"/>
      </g>
     </g>
    </g>
    <g id="ytick_4">
     <g id="line2d_10">
      <g>
       <use style="stroke:#000000;stroke-width:0.8;" x="31.995" xlink:href="#mcb6b17693f" y="47.493453"/>
      </g>
     </g>
     <g id="text_10">
      <!-- 20 -->
      <g transform="translate(7.2 53.219703)scale(0.16 -0.16)">
       <use xlink:href="#ArialMT-50"/>
       <use x="55.615234" xlink:href="#ArialMT-48"/>
      </g>
     </g>
    </g>
   </g>
   <g id="line2d_11">
    <path clip-path="url(#p27c71383aa)" d="M 49.667727 137.905606 
L 53.237975 138.058092 
L 56.808223 138.513643 
L 60.378471 139.266622 
L 63.948719 140.307905 
L 67.518967 141.625256 
L 71.089215 143.203799 
L 74.659463 145.026549 
L 78.229711 147.074947 
L 81.799959 149.32938 
L 85.370207 151.769653 
L 88.940455 154.37539 
L 92.510702 157.126372 
L 96.08095 160.002796 
L 99.651198 162.985472 
L 103.221446 166.055958 
L 106.791694 169.196654 
L 110.361942 172.390843 
L 113.93219 175.622714 
L 117.502438 178.877361 
L 121.072686 182.140754 
L 124.642934 185.399717 
L 128.213182 188.641887 
L 131.78343 191.85567 
L 135.353678 195.030204 
L 138.923926 198.155312 
L 142.494174 201.221466 
L 146.064421 204.219744 
L 149.634669 207.141796 
L 153.204917 209.979811 
L 156.775165 212.726487 
L 160.345413 215.375003 
L 163.915661 217.918993 
L 167.485909 220.352528 
L 171.056157 222.670089 
L 174.626405 224.866555 
L 178.196653 226.937188 
L 181.766901 228.877615 
L 185.337149 230.683816 
L 188.907397 232.352117 
L 192.477645 233.879179 
L 196.047893 235.261989 
L 199.61814 236.497852 
L 203.188388 237.584387 
L 206.758636 238.519522 
L 210.328884 239.301488 
L 213.899132 239.928816 
L 217.46938 240.400334 
L 221.039628 240.715166 
L 224.609876 240.872727 
L 228.180124 240.872727 
L 231.750372 240.715166 
L 235.32062 240.400334 
L 238.890868 239.928816 
L 242.461116 239.301488 
L 246.031364 238.519522 
L 249.601612 237.584387 
L 253.17186 236.497852 
L 256.742107 235.261989 
L 260.312355 233.879179 
L 263.882603 232.352117 
L 267.452851 230.683816 
L 271.023099 228.877615 
L 274.593347 226.937188 
L 278.163595 224.866555 
L 281.733843 222.670089 
L 285.304091 220.352528 
L 288.874339 217.918993 
L 292.444587 215.375003 
L 296.014835 212.726487 
L 299.585083 209.979811 
L 303.155331 207.141796 
L 306.725579 204.219744 
L 310.295826 201.221466 
L 313.866074 198.155312 
L 317.436322 195.030204 
L 321.00657 191.85567 
L 324.576818 188.641887 
L 328.147066 185.399717 
L 331.717314 182.140754 
L 335.287562 178.877361 
L 338.85781 175.622714 
L 342.428058 172.390843 
L 345.998306 169.196654 
L 349.568554 166.055958 
L 353.138802 162.985472 
L 356.70905 160.002796 
L 360.279298 157.126372 
L 363.849545 154.37539 
L 367.419793 151.769653 
L 370.990041 149.32938 
L 374.560289 147.074947 
L 378.130537 145.026549 
L 381.700785 143.203799 
L 385.271033 141.625256 
L 388.841281 140.307905 
L 392.411529 139.266622 
L 395.981777 138.513643 
L 399.552025 138.058092 
L 403.122273 137.905606 
" style="fill:none;stroke:#016e82;stroke-linecap:square;stroke-width:1.5;"/>
   </g>
   <g id="line2d_12">
    <path clip-path="url(#p27c71383aa)" d="M 49.667727 95.364208 
L 53.237975 95.482705 
L 56.808223 95.836884 
L 60.378471 96.42286 
L 63.948719 97.234324 
L 67.518967 98.262767 
L 71.089215 99.497773 
L 74.659463 100.927349 
L 78.229711 102.538265 
L 81.799959 104.316388 
L 85.370207 106.246998 
L 88.940455 108.315063 
L 92.510702 110.505476 
L 96.08095 112.803249 
L 99.651198 115.193665 
L 103.221446 117.6624 
L 106.791694 120.1956 
L 110.361942 122.779941 
L 113.93219 125.402664 
L 117.502438 128.051591 
L 121.072686 130.715129 
L 124.642934 133.38227 
L 128.213182 136.042571 
L 131.78343 138.686143 
L 135.353678 141.303633 
L 138.923926 143.886198 
L 142.494174 146.425488 
L 146.064421 148.913627 
L 149.634669 151.343186 
L 153.204917 153.70717 
L 156.775165 155.999001 
L 160.345413 158.212496 
L 163.915661 160.341854 
L 167.485909 162.381647 
L 171.056157 164.326801 
L 174.626405 166.172587 
L 178.196653 167.914614 
L 181.766901 169.548815 
L 185.337149 171.071443 
L 188.907397 172.479061 
L 192.477645 173.768539 
L 196.047893 174.937046 
L 199.61814 175.982047 
L 203.188388 176.901298 
L 206.758636 177.69284 
L 210.328884 178.355002 
L 213.899132 178.886395 
L 217.46938 179.285909 
L 221.039628 179.552712 
L 224.609876 179.686252 
L 228.180124 179.686252 
L 231.750372 179.552712 
L 235.32062 179.285909 
L 238.890868 178.886395 
L 242.461116 178.355002 
L 246.031364 177.69284 
L 249.601612 176.901298 
L 253.17186 175.982047 
L 256.742107 174.937046 
L 260.312355 173.768539 
L 263.882603 172.479061 
L 267.452851 171.071443 
L 271.023099 169.548815 
L 274.593347 167.914614 
L 278.163595 166.172587 
L 281.733843 164.326801 
L 285.304091 162.381647 
L 288.874339 160.341854 
L 292.444587 158.212496 
L 296.014835 155.999001 
L 299.585083 153.70717 
L 303.155331 151.343186 
L 306.725579 148.913627 
L 310.295826 146.425488 
L 313.866074 143.886198 
L 317.436322 141.303633 
L 321.00657 138.686143 
L 324.576818 136.042571 
L 328.147066 133.38227 
L 331.717314 130.715129 
L 335.287562 128.051591 
L 338.85781 125.402664 
L 342.428058 122.779941 
L 345.998306 120.1956 
L 349.568554 117.6624 
L 353.138802 115.193665 
L 356.70905 112.803249 
L 360.279298 110.505476 
L 363.849545 108.315063 
L 367.419793 106.246998 
L 370.990041 104.316388 
L 374.560289 102.538265 
L 378.130537 100.927349 
L 381.700785 99.497773 
L 385.271033 98.262767 
L 388.841281 97.234324 
L 392.411529 96.42286 
L 395.981777 95.836884 
L 399.552025 95.482705 
L 403.122273 95.364208 
" style="fill:none;stroke:#333795;stroke-linecap:square;stroke-width:1.5;"/>
   </g>
   <g id="line2d_13">
    <path clip-path="url(#p27c71383aa)" d="M 49.667727 55.403835 
L 53.237975 55.487984 
L 56.808223 55.739728 
L 60.378471 56.156968 
L 63.948719 56.736261 
L 67.518967 57.472895 
L 71.089215 58.360992 
L 74.659463 59.393633 
L 78.229711 60.562998 
L 81.799959 61.860514 
L 85.370207 63.277007 
L 88.940455 64.802852 
L 92.510702 66.428108 
L 96.08095 68.142651 
L 99.651198 69.936278 
L 103.221446 71.798809 
L 106.791694 73.720164 
L 110.361942 75.69043 
L 113.93219 77.699913 
L 117.502438 79.739176 
L 121.072686 81.79907 
L 124.642934 83.870755 
L 128.213182 85.945715 
L 131.78343 88.015766 
L 135.353678 90.07306 
L 138.923926 92.110089 
L 142.494174 94.119679 
L 146.064421 96.094993 
L 149.634669 98.029524 
L 153.204917 99.917089 
L 156.775165 101.751826 
L 160.345413 103.52819 
L 163.915661 105.240941 
L 167.485909 106.885148 
L 171.056157 108.456177 
L 174.626405 109.94969 
L 178.196653 111.361638 
L 181.766901 112.688259 
L 185.337149 113.926073 
L 188.907397 115.071881 
L 192.477645 116.122758 
L 196.047893 117.076053 
L 199.61814 117.929389 
L 203.188388 118.680654 
L 206.758636 119.328007 
L 210.328884 119.869871 
L 213.899132 120.304933 
L 217.46938 120.632146 
L 221.039628 120.850725 
L 224.609876 120.960145 
L 228.180124 120.960145 
L 231.750372 120.850725 
L 235.32062 120.632146 
L 238.890868 120.304933 
L 242.461116 119.869871 
L 246.031364 119.328007 
L 249.601612 118.680654 
L 253.17186 117.929389 
L 256.742107 117.076053 
L 260.312355 116.122758 
L 263.882603 115.071881 
L 267.452851 113.926073 
L 271.023099 112.688259 
L 274.593347 111.361638 
L 278.163595 109.94969 
L 281.733843 108.456177 
L 285.304091 106.885148 
L 288.874339 105.240941 
L 292.444587 103.52819 
L 296.014835 101.751826 
L 299.585083 99.917089 
L 303.155331 98.029524 
L 306.725579 96.094993 
L 310.295826 94.119679 
L 313.866074 92.110089 
L 317.436322 90.07306 
L 321.00657 88.015766 
L 324.576818 85.945715 
L 328.147066 83.870755 
L 331.717314 81.79907 
L 335.287562 79.739176 
L 338.85781 77.699913 
L 342.428058 75.69043 
L 345.998306 73.720164 
L 349.568554 71.798809 
L 353.138802 69.936278 
L 356.70905 68.142651 
L 360.279298 66.428108 
L 363.849545 64.802852 
L 367.419793 63.277007 
L 370.990041 61.860514 
L 374.560289 60.562998 
L 378.130537 59.393633 
L 381.700785 58.360992 
L 385.271033 57.472895 
L 388.841281 56.736261 
L 392.411529 56.156968 
L 395.981777 55.739728 
L 399.552025 55.487984 
L 403.122273 55.403835 
" style="fill:none;stroke:#2e5eac;stroke-linecap:square;stroke-width:1.5;"/>
   </g>
   <g id="line2d_14">
    <path clip-path="url(#p27c71383aa)" d="M 49.667727 18.327273 
L 53.237975 18.37654 
L 56.808223 18.524248 
L 60.378471 18.770099 
L 63.948719 19.113539 
L 67.518967 19.553694 
L 71.089215 20.089281 
L 74.659463 20.718534 
L 78.229711 21.439143 
L 81.799959 22.248206 
L 85.370207 23.14222 
L 88.940455 24.117092 
L 92.510702 25.168174 
L 96.08095 26.290317 
L 99.651198 27.477937 
L 103.221446 28.725091 
L 106.791694 30.02555 
L 110.361942 31.372876 
L 113.93219 32.76049 
L 117.502438 34.181734 
L 121.072686 35.62993 
L 124.642934 37.098428 
L 128.213182 38.580651 
L 131.78343 40.070125 
L 135.353678 41.560512 
L 138.923926 43.045633 
L 142.494174 44.519491 
L 146.064421 45.976282 
L 149.634669 47.41041 
L 153.204917 48.816498 
L 156.775165 50.189393 
L 160.345413 51.524175 
L 163.915661 52.81616 
L 167.485909 54.060904 
L 171.056157 55.254205 
L 174.626405 56.392106 
L 178.196653 57.470894 
L 181.766901 58.487103 
L 185.337149 59.437517 
L 188.907397 60.319163 
L 192.477645 61.12932 
L 196.047893 61.865512 
L 199.61814 62.525511 
L 203.188388 63.107339 
L 206.758636 63.609264 
L 210.328884 64.029802 
L 213.899132 64.367715 
L 217.46938 64.622015 
L 221.039628 64.791961 
L 224.609876 64.877058 
L 228.180124 64.877058 
L 231.750372 64.791961 
L 235.32062 64.622015 
L 238.890868 64.367715 
L 242.461116 64.029802 
L 246.031364 63.609264 
L 249.601612 63.107339 
L 253.17186 62.525511 
L 256.742107 61.865512 
L 260.312355 61.12932 
L 263.882603 60.319163 
L 267.452851 59.437517 
L 271.023099 58.487103 
L 274.593347 57.470894 
L 278.163595 56.392106 
L 281.733843 55.254205 
L 285.304091 54.060904 
L 288.874339 52.81616 
L 292.444587 51.524175 
L 296.014835 50.189393 
L 299.585083 48.816498 
L 303.155331 47.41041 
L 306.725579 45.976282 
L 310.295826 44.519491 
L 313.866074 43.045633 
L 317.436322 41.560512 
L 321.00657 40.070125 
L 324.576818 38.580651 
L 328.147066 37.098428 
L 331.717314 35.62993 
L 335.287562 34.181734 
L 338.85781 32.76049 
L 342.428058 31.372876 
L 345.998306 30.02555 
L 349.568554 28.725091 
L 353.138802 27.477937 
L 356.70905 26.290317 
L 360.279298 25.168174 
L 363.849545 24.117092 
L 367.419793 23.14222 
L 370.990041 22.248206 
L 374.560289 21.439143 
L 378.130537 20.718534 
L 381.700785 20.089281 
L 385.271033 19.553694 
L 388.841281 19.113539 
L 392.411529 18.770099 
L 395.981777 18.524248 
L 399.552025 18.37654 
L 403.122273 18.327273 
" style="fill:none;stroke:#4498d3;stroke-linecap:square;stroke-width:1.5;"/>
   </g>
   <g id="patch_3">
    <path d="M 31.995 252 
L 31.995 7.2 
" style="fill:none;stroke:#000000;stroke-linecap:square;stroke-linejoin:miter;stroke-width:0.8;"/>
   </g>
   <g id="patch_4">
    <path d="M 420.795 252 
L 420.795 7.2 
" style="fill:none;stroke:#000000;stroke-linecap:square;stroke-linejoin:miter;stroke-width:0.8;"/>
   </g>
   <g id="patch_5">
    <path d="M 31.995 252 
L 420.795 252 
" style="fill:none;stroke:#000000;stroke-linecap:square;stroke-linejoin:miter;stroke-width:0.8;"/>
   </g>
   <g id="patch_6">
    <path d="M 31.995 7.2 
L 420.795 7.2 
" style="fill:none;stroke:#000000;stroke-linecap:square;stroke-linejoin:miter;stroke-width:0.8;"/>
   </g>
  </g>
 </g>
 <defs>
  <clipPath id="p27c71383aa">
   <rect height="244.8" width="388.8" x="31.995" y="7.2"/>
  </clipPath>
 </defs>
</svg>
