<?xml version="1.0" encoding="utf-8" standalone="no"?>
<!DOCTYPE svg PUBLIC "-//W3C//DTD SVG 1.1//EN"
  "http://www.w3.org/Graphics/SVG/1.1/DTD/svg11.dtd">
<!-- Created with matplotlib (https://matplotlib.org/) -->
<svg height="281.464266pt" version="1.1" viewBox="0 0 432.44 281.464266" width="432.44pt" xmlns="http://www.w3.org/2000/svg" xmlns:xlink="http://www.w3.org/1999/xlink">
 <defs>
  <style type="text/css">
*{stroke-linecap:butt;stroke-linejoin:round;}
  </style>
 </defs>
 <g id="figure_1">
  <g id="patch_1">
   <path d="M 0 281.464266 
L 432.44 281.464266 
L 432.44 0 
L 0 0 
z
" style="fill:none;"/>
  </g>
  <g id="axes_1">
   <g id="patch_2">
    <path d="M 36.44 252.631766 
L 425.24 252.631766 
L 425.24 7.831766 
L 36.44 7.831766 
z
" style="fill:#ffffff;"/>
   </g>
   <g id="matplotlib.axis_1">
    <g id="xtick_1">
     <g id="line2d_1">
      <defs>
       <path d="M 0 0 
L 0 3.5 
" id="m495ec0f8ba" style="stroke:#000000;stroke-width:0.8;"/>
      </defs>
      <g>
       <use style="stroke:#000000;stroke-width:0.8;" x="54.112727" xlink:href="#m495ec0f8ba" y="252.631766"/>
      </g>
     </g>
     <g id="text_1">
      <!-- 0 -->
      <defs>
       <path d="M 4.15625 35.296875 
Q 4.15625 48 6.765625 55.734375 
Q 9.375 63.484375 14.515625 67.671875 
Q 19.671875 71.875 27.484375 71.875 
Q 33.25 71.875 37.59375 69.546875 
Q 41.9375 67.234375 44.765625 62.859375 
Q 47.609375 58.5 49.21875 52.21875 
Q 50.828125 45.953125 50.828125 35.296875 
Q 50.828125 22.703125 48.234375 14.96875 
Q 45.65625 7.234375 40.5 3 
Q 35.359375 -1.21875 27.484375 -1.21875 
Q 17.140625 -1.21875 11.234375 6.203125 
Q 4.15625 15.140625 4.15625 35.296875 
z
M 13.1875 35.296875 
Q 13.1875 17.671875 17.3125 11.828125 
Q 21.4375 6 27.484375 6 
Q 33.546875 6 37.671875 11.859375 
Q 41.796875 17.71875 41.796875 35.296875 
Q 41.796875 52.984375 37.671875 58.78125 
Q 33.546875 64.59375 27.390625 64.59375 
Q 21.34375 64.59375 17.71875 59.46875 
Q 13.1875 52.9375 13.1875 35.296875 
z
" id="ArialMT-48"/>
      </defs>
      <g transform="translate(49.663977 271.084266)scale(0.16 -0.16)">
       <use xlink:href="#ArialMT-48"/>
      </g>
     </g>
    </g>
    <g id="xtick_2">
     <g id="line2d_2">
      <g>
       <use style="stroke:#000000;stroke-width:0.8;" x="125.517686" xlink:href="#m495ec0f8ba" y="252.631766"/>
      </g>
     </g>
     <g id="text_2">
      <!-- 20 -->
      <defs>
       <path d="M 50.34375 8.453125 
L 50.34375 0 
L 3.03125 0 
Q 2.9375 3.171875 4.046875 6.109375 
Q 5.859375 10.9375 9.828125 15.625 
Q 13.8125 20.3125 21.34375 26.46875 
Q 33.015625 36.03125 37.109375 41.625 
Q 41.21875 47.21875 41.21875 52.203125 
Q 41.21875 57.421875 37.46875 61 
Q 33.734375 64.59375 27.734375 64.59375 
Q 21.390625 64.59375 17.578125 60.78125 
Q 13.765625 56.984375 13.71875 50.25 
L 4.6875 51.171875 
Q 5.609375 61.28125 11.65625 66.578125 
Q 17.71875 71.875 27.9375 71.875 
Q 38.234375 71.875 44.234375 66.15625 
Q 50.25 60.453125 50.25 52 
Q 50.25 47.703125 48.484375 43.546875 
Q 46.734375 39.40625 42.65625 34.8125 
Q 38.578125 30.21875 29.109375 22.21875 
Q 21.1875 15.578125 18.9375 13.203125 
Q 16.703125 10.84375 15.234375 8.453125 
z
" id="ArialMT-50"/>
      </defs>
      <g transform="translate(116.620186 271.084266)scale(0.16 -0.16)">
       <use xlink:href="#ArialMT-50"/>
       <use x="55.615234" xlink:href="#ArialMT-48"/>
      </g>
     </g>
    </g>
    <g id="xtick_3">
     <g id="line2d_3">
      <g>
       <use style="stroke:#000000;stroke-width:0.8;" x="196.922645" xlink:href="#m495ec0f8ba" y="252.631766"/>
      </g>
     </g>
     <g id="text_3">
      <!-- 40 -->
      <defs>
       <path d="M 32.328125 0 
L 32.328125 17.140625 
L 1.265625 17.140625 
L 1.265625 25.203125 
L 33.9375 71.578125 
L 41.109375 71.578125 
L 41.109375 25.203125 
L 50.78125 25.203125 
L 50.78125 17.140625 
L 41.109375 17.140625 
L 41.109375 0 
z
M 32.328125 25.203125 
L 32.328125 57.46875 
L 9.90625 25.203125 
z
" id="ArialMT-52"/>
      </defs>
      <g transform="translate(188.025145 271.084266)scale(0.16 -0.16)">
       <use xlink:href="#ArialMT-52"/>
       <use x="55.615234" xlink:href="#ArialMT-48"/>
      </g>
     </g>
    </g>
    <g id="xtick_4">
     <g id="line2d_4">
      <g>
       <use style="stroke:#000000;stroke-width:0.8;" x="268.327603" xlink:href="#m495ec0f8ba" y="252.631766"/>
      </g>
     </g>
     <g id="text_4">
      <!-- 60 -->
      <defs>
       <path d="M 49.75 54.046875 
L 41.015625 53.375 
Q 39.84375 58.546875 37.703125 60.890625 
Q 34.125 64.65625 28.90625 64.65625 
Q 24.703125 64.65625 21.53125 62.3125 
Q 17.390625 59.28125 14.984375 53.46875 
Q 12.59375 47.65625 12.5 36.921875 
Q 15.671875 41.75 20.265625 44.09375 
Q 24.859375 46.4375 29.890625 46.4375 
Q 38.671875 46.4375 44.84375 39.96875 
Q 51.03125 33.5 51.03125 23.25 
Q 51.03125 16.5 48.125 10.71875 
Q 45.21875 4.9375 40.140625 1.859375 
Q 35.0625 -1.21875 28.609375 -1.21875 
Q 17.625 -1.21875 10.6875 6.859375 
Q 3.765625 14.9375 3.765625 33.5 
Q 3.765625 54.25 11.421875 63.671875 
Q 18.109375 71.875 29.4375 71.875 
Q 37.890625 71.875 43.28125 67.140625 
Q 48.6875 62.40625 49.75 54.046875 
z
M 13.875 23.1875 
Q 13.875 18.65625 15.796875 14.5 
Q 17.71875 10.359375 21.1875 8.171875 
Q 24.65625 6 28.46875 6 
Q 34.03125 6 38.03125 10.484375 
Q 42.046875 14.984375 42.046875 22.703125 
Q 42.046875 30.125 38.078125 34.390625 
Q 34.125 38.671875 28.125 38.671875 
Q 22.171875 38.671875 18.015625 34.390625 
Q 13.875 30.125 13.875 23.1875 
z
" id="ArialMT-54"/>
      </defs>
      <g transform="translate(259.430103 271.084266)scale(0.16 -0.16)">
       <use xlink:href="#ArialMT-54"/>
       <use x="55.615234" xlink:href="#ArialMT-48"/>
      </g>
     </g>
    </g>
    <g id="xtick_5">
     <g id="line2d_5">
      <g>
       <use style="stroke:#000000;stroke-width:0.8;" x="339.732562" xlink:href="#m495ec0f8ba" y="252.631766"/>
      </g>
     </g>
     <g id="text_5">
      <!-- 80 -->
      <defs>
       <path d="M 17.671875 38.8125 
Q 12.203125 40.828125 9.5625 44.53125 
Q 6.9375 48.25 6.9375 53.421875 
Q 6.9375 61.234375 12.546875 66.546875 
Q 18.171875 71.875 27.484375 71.875 
Q 36.859375 71.875 42.578125 66.421875 
Q 48.296875 60.984375 48.296875 53.171875 
Q 48.296875 48.1875 45.671875 44.5 
Q 43.0625 40.828125 37.75 38.8125 
Q 44.34375 36.671875 47.78125 31.875 
Q 51.21875 27.09375 51.21875 20.453125 
Q 51.21875 11.28125 44.71875 5.03125 
Q 38.234375 -1.21875 27.640625 -1.21875 
Q 17.046875 -1.21875 10.546875 5.046875 
Q 4.046875 11.328125 4.046875 20.703125 
Q 4.046875 27.6875 7.59375 32.390625 
Q 11.140625 37.109375 17.671875 38.8125 
z
M 15.921875 53.71875 
Q 15.921875 48.640625 19.1875 45.40625 
Q 22.46875 42.1875 27.6875 42.1875 
Q 32.765625 42.1875 36.015625 45.375 
Q 39.265625 48.578125 39.265625 53.21875 
Q 39.265625 58.0625 35.90625 61.359375 
Q 32.5625 64.65625 27.59375 64.65625 
Q 22.5625 64.65625 19.234375 61.421875 
Q 15.921875 58.203125 15.921875 53.71875 
z
M 13.09375 20.65625 
Q 13.09375 16.890625 14.875 13.375 
Q 16.65625 9.859375 20.171875 7.921875 
Q 23.6875 6 27.734375 6 
Q 34.03125 6 38.125 10.046875 
Q 42.234375 14.109375 42.234375 20.359375 
Q 42.234375 26.703125 38.015625 30.859375 
Q 33.796875 35.015625 27.4375 35.015625 
Q 21.234375 35.015625 17.15625 30.90625 
Q 13.09375 26.8125 13.09375 20.65625 
z
" id="ArialMT-56"/>
      </defs>
      <g transform="translate(330.835062 271.084266)scale(0.16 -0.16)">
       <use xlink:href="#ArialMT-56"/>
       <use x="55.615234" xlink:href="#ArialMT-48"/>
      </g>
     </g>
    </g>
    <g id="xtick_6">
     <g id="line2d_6">
      <g>
       <use style="stroke:#000000;stroke-width:0.8;" x="411.137521" xlink:href="#m495ec0f8ba" y="252.631766"/>
      </g>
     </g>
     <g id="text_6">
      <!-- 100 -->
      <defs>
       <path d="M 37.25 0 
L 28.46875 0 
L 28.46875 56 
Q 25.296875 52.984375 20.140625 49.953125 
Q 14.984375 46.921875 10.890625 45.40625 
L 10.890625 53.90625 
Q 18.265625 57.375 23.78125 62.296875 
Q 29.296875 67.234375 31.59375 71.875 
L 37.25 71.875 
z
" id="ArialMT-49"/>
      </defs>
      <g transform="translate(397.791271 271.084266)scale(0.16 -0.16)">
       <use xlink:href="#ArialMT-49"/>
       <use x="55.615234" xlink:href="#ArialMT-48"/>
       <use x="111.230469" xlink:href="#ArialMT-48"/>
      </g>
     </g>
    </g>
   </g>
   <g id="matplotlib.axis_2">
    <g id="ytick_1">
     <g id="line2d_7">
      <defs>
       <path d="M 0 0 
L -3.5 0 
" id="m129916852a" style="stroke:#000000;stroke-width:0.8;"/>
      </defs>
      <g>
       <use style="stroke:#000000;stroke-width:0.8;" x="36.44" xlink:href="#m129916852a" y="248.396614"/>
      </g>
     </g>
     <g id="text_7">
      <!-- 3.5 -->
      <defs>
       <path d="M 4.203125 18.890625 
L 12.984375 20.0625 
Q 14.5 12.59375 18.140625 9.296875 
Q 21.78125 6 27 6 
Q 33.203125 6 37.46875 10.296875 
Q 41.75 14.59375 41.75 20.953125 
Q 41.75 27 37.796875 30.921875 
Q 33.84375 34.859375 27.734375 34.859375 
Q 25.25 34.859375 21.53125 33.890625 
L 22.515625 41.609375 
Q 23.390625 41.5 23.921875 41.5 
Q 29.546875 41.5 34.03125 44.421875 
Q 38.53125 47.359375 38.53125 53.46875 
Q 38.53125 58.296875 35.25 61.46875 
Q 31.984375 64.65625 26.8125 64.65625 
Q 21.6875 64.65625 18.265625 61.421875 
Q 14.84375 58.203125 13.875 51.765625 
L 5.078125 53.328125 
Q 6.6875 62.15625 12.390625 67.015625 
Q 18.109375 71.875 26.609375 71.875 
Q 32.46875 71.875 37.390625 69.359375 
Q 42.328125 66.84375 44.9375 62.5 
Q 47.5625 58.15625 47.5625 53.265625 
Q 47.5625 48.640625 45.0625 44.828125 
Q 42.578125 41.015625 37.703125 38.765625 
Q 44.046875 37.3125 47.5625 32.6875 
Q 51.078125 28.078125 51.078125 21.140625 
Q 51.078125 11.765625 44.234375 5.25 
Q 37.40625 -1.265625 26.953125 -1.265625 
Q 17.53125 -1.265625 11.296875 4.34375 
Q 5.078125 9.96875 4.203125 18.890625 
z
" id="ArialMT-51"/>
       <path d="M 9.078125 0 
L 9.078125 10.015625 
L 19.09375 10.015625 
L 19.09375 0 
z
" id="ArialMT-46"/>
       <path d="M 4.15625 18.75 
L 13.375 19.53125 
Q 14.40625 12.796875 18.140625 9.390625 
Q 21.875 6 27.15625 6 
Q 33.5 6 37.890625 10.78125 
Q 42.28125 15.578125 42.28125 23.484375 
Q 42.28125 31 38.0625 35.34375 
Q 33.84375 39.703125 27 39.703125 
Q 22.75 39.703125 19.328125 37.765625 
Q 15.921875 35.84375 13.96875 32.765625 
L 5.71875 33.84375 
L 12.640625 70.609375 
L 48.25 70.609375 
L 48.25 62.203125 
L 19.671875 62.203125 
L 15.828125 42.96875 
Q 22.265625 47.46875 29.34375 47.46875 
Q 38.71875 47.46875 45.15625 40.96875 
Q 51.609375 34.46875 51.609375 24.265625 
Q 51.609375 14.546875 45.953125 7.46875 
Q 39.0625 -1.21875 27.15625 -1.21875 
Q 17.390625 -1.21875 11.203125 4.25 
Q 5.03125 9.71875 4.15625 18.75 
z
" id="ArialMT-53"/>
      </defs>
      <g transform="translate(7.2 254.122864)scale(0.16 -0.16)">
       <use xlink:href="#ArialMT-51"/>
       <use x="55.615234" xlink:href="#ArialMT-46"/>
       <use x="83.398438" xlink:href="#ArialMT-53"/>
      </g>
     </g>
    </g>
    <g id="ytick_2">
     <g id="line2d_8">
      <g>
       <use style="stroke:#000000;stroke-width:0.8;" x="36.44" xlink:href="#m129916852a" y="189.529023"/>
      </g>
     </g>
     <g id="text_8">
      <!-- 4.0 -->
      <g transform="translate(7.2 195.255273)scale(0.16 -0.16)">
       <use xlink:href="#ArialMT-52"/>
       <use x="55.615234" xlink:href="#ArialMT-46"/>
       <use x="83.398438" xlink:href="#ArialMT-48"/>
      </g>
     </g>
    </g>
    <g id="ytick_3">
     <g id="line2d_9">
      <g>
       <use style="stroke:#000000;stroke-width:0.8;" x="36.44" xlink:href="#m129916852a" y="130.661432"/>
      </g>
     </g>
     <g id="text_9">
      <!-- 4.5 -->
      <g transform="translate(7.2 136.387682)scale(0.16 -0.16)">
       <use xlink:href="#ArialMT-52"/>
       <use x="55.615234" xlink:href="#ArialMT-46"/>
       <use x="83.398438" xlink:href="#ArialMT-53"/>
      </g>
     </g>
    </g>
    <g id="ytick_4">
     <g id="line2d_10">
      <g>
       <use style="stroke:#000000;stroke-width:0.8;" x="36.44" xlink:href="#m129916852a" y="71.793841"/>
      </g>
     </g>
     <g id="text_10">
      <!-- 5.0 -->
      <g transform="translate(7.2 77.520091)scale(0.16 -0.16)">
       <use xlink:href="#ArialMT-53"/>
       <use x="55.615234" xlink:href="#ArialMT-46"/>
       <use x="83.398438" xlink:href="#ArialMT-48"/>
      </g>
     </g>
    </g>
    <g id="ytick_5">
     <g id="line2d_11">
      <g>
       <use style="stroke:#000000;stroke-width:0.8;" x="36.44" xlink:href="#m129916852a" y="12.92625"/>
      </g>
     </g>
     <g id="text_11">
      <!-- 5.5 -->
      <g transform="translate(7.2 18.6525)scale(0.16 -0.16)">
       <use xlink:href="#ArialMT-53"/>
       <use x="55.615234" xlink:href="#ArialMT-46"/>
       <use x="83.398438" xlink:href="#ArialMT-53"/>
      </g>
     </g>
    </g>
   </g>
   <g id="line2d_12">
    <path clip-path="url(#pe8274274e9)" d="M 54.112727 214.443697 
L 57.682975 214.087336 
L 61.253223 213.024495 
L 64.823471 211.273551 
L 68.393719 208.864007 
L 71.963967 205.834946 
L 75.534215 202.233125 
L 79.104463 198.110889 
L 82.674711 193.524097 
L 86.244959 188.530214 
L 89.815207 183.186649 
L 93.385455 177.549416 
L 96.955702 171.672118 
L 100.52595 165.605237 
L 104.096198 159.395689 
L 107.666446 153.086613 
L 111.236694 146.717315 
L 114.806942 140.323356 
L 118.37719 133.936721 
L 121.947438 127.586042 
L 125.517686 121.296856 
L 129.087934 115.091877 
L 132.658182 108.991264 
L 136.22843 103.01288 
L 139.798678 97.172539 
L 143.368926 91.48423 
L 146.939174 85.960324 
L 150.509421 80.611759 
L 154.079669 75.448209 
L 157.649917 70.478231 
L 161.220165 65.709396 
L 164.790413 61.148405 
L 168.360661 56.801188 
L 171.930909 52.673 
L 175.501157 48.76849 
L 179.071405 45.091775 
L 182.641653 41.646496 
L 186.211901 38.435871 
L 189.782149 35.46274 
L 193.352397 32.729602 
L 196.922645 30.238649 
L 200.492893 27.991795 
L 204.06314 25.990702 
L 207.633388 24.236798 
L 211.203636 22.731298 
L 214.773884 21.475217 
L 218.344132 20.469384 
L 221.91438 19.714449 
L 225.484628 19.210895 
L 229.054876 18.959039 
L 232.625124 18.959039 
L 236.195372 19.210895 
L 239.76562 19.714449 
L 243.335868 20.469384 
L 246.906116 21.475217 
L 250.476364 22.731298 
L 254.046612 24.236798 
L 257.61686 25.990702 
L 261.187107 27.991795 
L 264.757355 30.238649 
L 268.327603 32.729602 
L 271.897851 35.46274 
L 275.468099 38.435871 
L 279.038347 41.646496 
L 282.608595 45.091775 
L 286.178843 48.76849 
L 289.749091 52.673 
L 293.319339 56.801188 
L 296.889587 61.148405 
L 300.459835 65.709396 
L 304.030083 70.478231 
L 307.600331 75.448209 
L 311.170579 80.611759 
L 314.740826 85.960324 
L 318.311074 91.48423 
L 321.881322 97.172539 
L 325.45157 103.01288 
L 329.021818 108.991264 
L 332.592066 115.091877 
L 336.162314 121.296856 
L 339.732562 127.586042 
L 343.30281 133.936721 
L 346.873058 140.323356 
L 350.443306 146.717315 
L 354.013554 153.086613 
L 357.583802 159.395689 
L 361.15405 165.605237 
L 364.724298 171.672118 
L 368.294545 177.549416 
L 371.864793 183.186649 
L 375.435041 188.530214 
L 379.005289 193.524097 
L 382.575537 198.110889 
L 386.145785 202.233125 
L 389.716033 205.834946 
L 393.286281 208.864007 
L 396.856529 211.273551 
L 400.426777 213.024495 
L 403.997025 214.087336 
L 407.567273 214.443697 
" style="fill:none;stroke:#016e82;stroke-linecap:square;stroke-width:1.5;"/>
   </g>
   <g id="line2d_13">
    <path clip-path="url(#pe8274274e9)" d="M 54.112727 241.504493 
L 57.682975 241.144376 
L 61.253223 240.070388 
L 64.823471 238.301264 
L 68.393719 235.867068 
L 71.963967 232.807597 
L 75.534215 229.170423 
L 79.104463 225.008754 
L 82.674711 220.379307 
L 86.244959 215.340367 
L 89.815207 209.950095 
L 93.385455 204.265174 
L 96.955702 198.339787 
L 100.52595 192.224905 
L 104.096198 185.967853 
L 107.666446 179.612093 
L 111.236694 173.197193 
L 114.806942 166.758915 
L 118.37719 160.329391 
L 121.947438 153.93736 
L 125.517686 147.608436 
L 129.087934 141.365375 
L 132.658182 135.228361 
L 136.22843 129.215262 
L 139.798678 123.341882 
L 143.368926 117.622194 
L 146.939174 112.06854 
L 150.509421 106.691828 
L 154.079669 101.501696 
L 157.649917 96.506663 
L 161.220165 91.714261 
L 164.790413 87.131151 
L 168.360661 82.763225 
L 171.930909 78.615699 
L 175.501157 74.693185 
L 179.071405 70.999765 
L 182.641653 67.539047 
L 186.211901 64.314218 
L 189.782149 61.328088 
L 193.352397 58.583128 
L 196.922645 56.081507 
L 200.492893 53.825115 
L 204.06314 51.815594 
L 207.633388 50.054356 
L 211.203636 48.542598 
L 214.773884 47.281323 
L 218.344132 46.271347 
L 221.91438 45.513313 
L 225.484628 45.007697 
L 229.054876 44.75481 
L 232.625124 44.75481 
L 236.195372 45.007697 
L 239.76562 45.513313 
L 243.335868 46.271347 
L 246.906116 47.281323 
L 250.476364 48.542598 
L 254.046612 50.054356 
L 257.61686 51.815594 
L 261.187107 53.825115 
L 264.757355 56.081507 
L 268.327603 58.583128 
L 271.897851 61.328088 
L 275.468099 64.314218 
L 279.038347 67.539047 
L 282.608595 70.999765 
L 286.178843 74.693185 
L 289.749091 78.615699 
L 293.319339 82.763225 
L 296.889587 87.131151 
L 300.459835 91.714261 
L 304.030083 96.506663 
L 307.600331 101.501696 
L 311.170579 106.691828 
L 314.740826 112.06854 
L 318.311074 117.622194 
L 321.881322 123.341882 
L 325.45157 129.215262 
L 329.021818 135.228361 
L 332.592066 141.365375 
L 336.162314 147.608436 
L 339.732562 153.93736 
L 343.30281 160.329391 
L 346.873058 166.758915 
L 350.443306 173.197193 
L 354.013554 179.612093 
L 357.583802 185.967853 
L 361.15405 192.224905 
L 364.724298 198.339787 
L 368.294545 204.265174 
L 371.864793 209.950095 
L 375.435041 215.340367 
L 379.005289 220.379307 
L 382.575537 225.008754 
L 386.145785 229.170423 
L 389.716033 232.807597 
L 393.286281 235.867068 
L 396.856529 238.301264 
L 400.426777 240.070388 
L 403.997025 241.144376 
L 407.567273 241.504493 
" style="fill:none;stroke:#333795;stroke-linecap:square;stroke-width:1.5;"/>
   </g>
   <g id="patch_3">
    <path d="M 36.44 252.631766 
L 36.44 7.831766 
" style="fill:none;stroke:#000000;stroke-linecap:square;stroke-linejoin:miter;stroke-width:0.8;"/>
   </g>
   <g id="patch_4">
    <path d="M 425.24 252.631766 
L 425.24 7.831766 
" style="fill:none;stroke:#000000;stroke-linecap:square;stroke-linejoin:miter;stroke-width:0.8;"/>
   </g>
   <g id="patch_5">
    <path d="M 36.44 252.631766 
L 425.24 252.631766 
" style="fill:none;stroke:#000000;stroke-linecap:square;stroke-linejoin:miter;stroke-width:0.8;"/>
   </g>
   <g id="patch_6">
    <path d="M 36.44 7.831766 
L 425.24 7.831766 
" style="fill:none;stroke:#000000;stroke-linecap:square;stroke-linejoin:miter;stroke-width:0.8;"/>
   </g>
  </g>
 </g>
 <defs>
  <clipPath id="pe8274274e9">
   <rect height="244.8" width="388.8" x="36.44" y="7.831766"/>
  </clipPath>
 </defs>
</svg>
