<?xml version="1.0" encoding="utf-8" standalone="no"?>
<!DOCTYPE svg PUBLIC "-//W3C//DTD SVG 1.1//EN"
  "http://www.w3.org/Graphics/SVG/1.1/DTD/svg11.dtd">
<!-- Created with matplotlib (https://matplotlib.org/) -->
<svg height="154.51545pt" version="1.1" viewBox="0 0 266.68 154.51545" width="266.68pt" xmlns="http://www.w3.org/2000/svg" xmlns:xlink="http://www.w3.org/1999/xlink">
 <defs>
  <style type="text/css">
*{stroke-linecap:butt;stroke-linejoin:round;}
  </style>
 </defs>
 <g id="figure_1">
  <g id="patch_1">
   <path d="M 0 154.51545 
L 266.68 154.51545 
L 266.68 0 
L 0 0 
z
" style="fill:none;"/>
  </g>
  <g id="axes_1">
   <g id="patch_2">
    <path clip-path="url(#p80c41ebc9d)" d="M 134.62 29.4825 
C 135.264444 29.4825 135.882579 29.240684 136.338269 28.81031 
C 136.79396 28.379936 137.05 27.796141 137.05 27.1875 
C 137.05 26.578859 136.79396 25.995064 136.338269 25.56469 
C 135.882579 25.134316 135.264444 24.8925 134.62 24.8925 
C 133.975556 24.8925 133.357421 25.134316 132.901731 25.56469 
C 132.44604 25.995064 132.19 26.578859 132.19 27.1875 
C 132.19 27.796141 132.44604 28.379936 132.901731 28.81031 
C 133.357421 29.240684 133.975556 29.4825 134.62 29.4825 
z
" style="stroke:#000000;stroke-linejoin:miter;stroke-width:1.5;"/>
   </g>
   <g id="patch_3">
    <path clip-path="url(#p80c41ebc9d)" d="M 231.82 121.2825 
C 232.464444 121.2825 233.082579 121.040684 233.538269 120.61031 
C 233.99396 120.179936 234.25 119.596141 234.25 118.9875 
C 234.25 118.378859 233.99396 117.795064 233.538269 117.36469 
C 233.082579 116.934316 232.464444 116.6925 231.82 116.6925 
C 231.175556 116.6925 230.557421 116.934316 230.101731 117.36469 
C 229.64604 117.795064 229.39 118.378859 229.39 118.9875 
C 229.39 119.596141 229.64604 120.179936 230.101731 120.61031 
C 230.557421 121.040684 231.175556 121.2825 231.82 121.2825 
z
" style="stroke:#000000;stroke-linejoin:miter;stroke-width:1.5;"/>
   </g>
   <g id="patch_4">
    <path clip-path="url(#p80c41ebc9d)" d="M 209.876262 89.72625 
C 210.884343 87.708339 211.718435 85.580831 212.366509 83.374405 
C 213.014584 81.167979 213.473511 78.893292 213.736673 76.583143 
C 213.999835 74.272994 214.065961 71.938541 213.934098 69.613447 
C 213.802234 67.288353 213.473018 64.983847 212.951197 62.73316 
C 212.429376 60.482472 211.717469 58.296474 210.825743 56.206686 
C 209.934017 54.116898 208.866778 52.133413 207.639416 50.284834 
C 206.412054 48.436255 205.030496 46.731509 203.514664 45.195178 
C 201.998833 43.658848 200.356048 42.298353 198.61 41.133311 
C 196.863952 39.96827 195.023072 39.004309 193.113907 38.255328 
C 191.204741 37.506347 189.236511 36.975965 187.237596 36.671828 
C 185.238682 36.367691 183.218738 36.291269 181.206892 36.443663 
C 179.195045 36.596058 177.201014 36.976534 175.25355 37.579604 
C 173.306086 38.182673 171.414596 39.005425 169.606354 40.035994 
C 167.798112 41.066564 166.081853 42.299974 164.482323 43.718438 
C 162.882794 45.136903 161.407719 46.733572 160.078371 48.485421 
C 158.749022 50.23727 157.57182 52.135839 156.563738 54.15375 
C 155.555657 56.171661 154.721565 58.299169 154.073491 60.505595 
C 153.425416 62.712021 152.966489 64.986708 152.703327 67.296857 
C 152.440165 69.607006 152.374039 71.941459 152.505902 74.266553 
C 152.637766 76.591647 152.966982 78.896153 153.488803 81.14684 
C 154.010624 83.397528 154.722531 85.583526 155.614257 87.673314 
C 156.505983 89.763102 157.573222 91.746587 158.800584 93.595166 
C 160.027946 95.443745 161.409504 97.148491 162.925336 98.684822 
C 164.441167 100.221152 166.083952 101.581647 167.83 102.746689 
C 169.576048 103.91173 171.416928 104.875691 173.326093 105.624672 
C 175.235259 106.373653 177.203489 106.904035 179.202404 107.208172 
C 181.201318 107.512309 183.221262 107.588731 185.233108 107.436337 
C 187.244955 107.283942 189.238986 106.903466 191.18645 106.300396 
C 193.133914 105.697327 195.025404 104.874575 196.833646 103.844006 
C 198.641888 102.813436 200.358147 101.580026 201.957677 100.161562 
C 203.557206 98.743097 205.032281 97.146428 206.361629 95.394579 
C 207.690978 93.64273 208.86818 91.744161 209.876262 89.72625 
" style="fill:none;stroke:#000000;stroke-linejoin:miter;stroke-width:1.5;"/>
   </g>
   <g id="patch_5">
    <path clip-path="url(#p80c41ebc9d)" d="M 207.462617 94.314258 
L 208.721246 86.416378 
L 210.904266 87.389135 
L 211.042518 87.112391 
L 211.07182 87.125448 
L 210.933568 87.402192 
L 213.116588 88.374948 
z
" style="stroke:#000000;stroke-linejoin:miter;"/>
   </g>
   <g id="line2d_1">
    <path clip-path="url(#p80c41ebc9d)" d="M 37.42 118.9875 
L 37.42 75.8415 
M 29.32 75.8415 
L 45.52 75.8415 
M 29.32 70.3335 
L 45.52 70.3335 
M 37.42 70.3335 
L 37.42 27.1875 
" style="fill:none;stroke:#000000;stroke-linecap:round;stroke-width:1.5;"/>
   </g>
   <g id="line2d_2">
    <path clip-path="url(#p80c41ebc9d)" d="M 37.42 27.1875 
L 86.02 27.1875 
L 134.62 27.1875 
" style="fill:none;stroke:#000000;stroke-linecap:round;stroke-width:1.5;"/>
   </g>
   <g id="line2d_3">
    <path clip-path="url(#p80c41ebc9d)" d="M 134.62 27.1875 
" style="fill:none;stroke:#000000;stroke-linecap:round;stroke-width:1.5;"/>
   </g>
   <g id="line2d_4">
    <path clip-path="url(#p80c41ebc9d)" d="M 134.62 27.1875 
L 134.62 73.0875 
M 142.72 65.4375 
L 126.52 80.7375 
M 142.72 80.7375 
L 126.52 65.4375 
M 134.62 73.0875 
L 134.62 118.9875 
" style="fill:none;stroke:#000000;stroke-linecap:round;stroke-width:1.5;"/>
   </g>
   <g id="line2d_5">
    <path clip-path="url(#p80c41ebc9d)" d="M 134.62 118.9875 
L 134.62 131.2275 
L 126.52 131.2275 
L 142.72 131.2275 
M 128.95 134.8995 
L 140.29 134.8995 
M 133 138.5715 
L 136.24 138.5715 
" style="fill:none;stroke:#000000;stroke-linecap:round;stroke-width:1.5;"/>
   </g>
   <g id="line2d_6">
    <path clip-path="url(#p80c41ebc9d)" d="M 134.62 27.1875 
L 183.22 27.1875 
L 231.82 27.1875 
" style="fill:none;stroke:#000000;stroke-linecap:round;stroke-width:1.5;"/>
   </g>
   <g id="line2d_7">
    <path clip-path="url(#p80c41ebc9d)" d="M 231.82 27.1875 
L 231.82 73.0875 
M 239.92 65.4375 
L 223.72 80.7375 
M 239.92 80.7375 
L 223.72 65.4375 
M 231.82 73.0875 
L 231.82 118.9875 
" style="fill:none;stroke:#000000;stroke-linecap:round;stroke-width:1.5;"/>
   </g>
   <g id="line2d_8">
    <path clip-path="url(#p80c41ebc9d)" d="M 231.82 118.9875 
" style="fill:none;stroke:#000000;stroke-linecap:round;stroke-width:1.5;"/>
   </g>
   <g id="line2d_9">
    <path clip-path="url(#p80c41ebc9d)" d="M 231.82 118.9875 
L 183.22 118.9875 
L 134.62 118.9875 
" style="fill:none;stroke:#000000;stroke-dasharray:5.55,2.4;stroke-dashoffset:0;stroke-width:1.5;"/>
   </g>
   <g id="line2d_10">
    <path clip-path="url(#p80c41ebc9d)" d="M 134.62 118.9875 
L 86.02 118.9875 
L 37.42 118.9875 
" style="fill:none;stroke:#000000;stroke-linecap:round;stroke-width:1.5;"/>
   </g>
   <g id="text_1">
    <!-- $C_q$ -->
    <defs>
     <path d="M 58.796875 25.09375 
L 68.265625 22.703125 
Q 65.28125 11.03125 57.546875 4.90625 
Q 49.8125 -1.21875 38.625 -1.21875 
Q 27.046875 -1.21875 19.796875 3.484375 
Q 12.546875 8.203125 8.765625 17.140625 
Q 4.984375 26.078125 4.984375 36.328125 
Q 4.984375 47.515625 9.25 55.828125 
Q 13.53125 64.15625 21.40625 68.46875 
Q 29.296875 72.796875 38.765625 72.796875 
Q 49.515625 72.796875 56.828125 67.328125 
Q 64.15625 61.859375 67.046875 51.953125 
L 57.71875 49.75 
Q 55.21875 57.5625 50.484375 61.125 
Q 45.75 64.703125 38.578125 64.703125 
Q 30.328125 64.703125 24.78125 60.734375 
Q 19.234375 56.78125 16.984375 50.109375 
Q 14.75 43.453125 14.75 36.375 
Q 14.75 27.25 17.40625 20.4375 
Q 20.0625 13.625 25.671875 10.25 
Q 31.296875 6.890625 37.84375 6.890625 
Q 45.796875 6.890625 51.3125 11.46875 
Q 56.84375 16.0625 58.796875 25.09375 
z
" id="ArialMT-67"/>
     <path d="M 39.65625 -19.875 
L 39.65625 5.515625 
Q 37.59375 2.640625 33.90625 0.734375 
Q 30.21875 -1.171875 26.078125 -1.171875 
Q 16.84375 -1.171875 10.171875 6.203125 
Q 3.515625 13.578125 3.515625 26.421875 
Q 3.515625 34.234375 6.21875 40.421875 
Q 8.9375 46.625 14.078125 49.828125 
Q 19.234375 53.03125 25.390625 53.03125 
Q 35.015625 53.03125 40.53125 44.921875 
L 40.53125 51.859375 
L 48.4375 51.859375 
L 48.4375 -19.875 
z
M 12.546875 26.078125 
Q 12.546875 16.0625 16.75 11.0625 
Q 20.953125 6.0625 26.8125 6.0625 
Q 32.421875 6.0625 36.46875 10.8125 
Q 40.53125 15.578125 40.53125 25.296875 
Q 40.53125 35.640625 36.25 40.859375 
Q 31.984375 46.09375 26.21875 46.09375 
Q 20.515625 46.09375 16.53125 41.234375 
Q 12.546875 36.375 12.546875 26.078125 
z
" id="ArialMT-113"/>
    </defs>
    <g transform="translate(7.2 75.4075)scale(0.16 -0.16)">
     <use transform="translate(0 0.203125)" xlink:href="#ArialMT-67"/>
     <use transform="translate(73.959141 -29.665625)scale(0.7)" xlink:href="#ArialMT-113"/>
    </g>
   </g>
   <g id="text_2">
    <!-- 1 -->
    <defs>
     <path d="M 37.25 0 
L 28.46875 0 
L 28.46875 56 
Q 25.296875 52.984375 20.140625 49.953125 
Q 14.984375 46.921875 10.890625 45.40625 
L 10.890625 53.90625 
Q 18.265625 57.375 23.78125 62.296875 
Q 29.296875 67.234375 31.59375 71.875 
L 37.25 71.875 
z
" id="ArialMT-49"/>
    </defs>
    <g transform="translate(130.17125 18.6525)scale(0.16 -0.16)">
     <use xlink:href="#ArialMT-49"/>
    </g>
   </g>
   <g id="text_3">
    <!-- $I_{c_1}$ -->
    <defs>
     <path d="M 9.328125 0 
L 9.328125 71.578125 
L 18.796875 71.578125 
L 18.796875 0 
z
" id="ArialMT-73"/>
     <path d="M 40.4375 19 
L 49.078125 17.875 
Q 47.65625 8.9375 41.8125 3.875 
Q 35.984375 -1.171875 27.484375 -1.171875 
Q 16.84375 -1.171875 10.375 5.78125 
Q 3.90625 12.75 3.90625 25.734375 
Q 3.90625 34.125 6.6875 40.421875 
Q 9.46875 46.734375 15.15625 49.875 
Q 20.84375 53.03125 27.546875 53.03125 
Q 35.984375 53.03125 41.359375 48.75 
Q 46.734375 44.484375 48.25 36.625 
L 39.703125 35.296875 
Q 38.484375 40.53125 35.375 43.15625 
Q 32.28125 45.796875 27.875 45.796875 
Q 21.234375 45.796875 17.078125 41.03125 
Q 12.9375 36.28125 12.9375 25.984375 
Q 12.9375 15.53125 16.9375 10.796875 
Q 20.953125 6.0625 27.390625 6.0625 
Q 32.5625 6.0625 36.03125 9.234375 
Q 39.5 12.40625 40.4375 19 
z
" id="ArialMT-99"/>
    </defs>
    <g transform="translate(106.96 74.7675)scale(0.16 -0.16)">
     <use transform="translate(0 0.421875)" xlink:href="#ArialMT-73"/>
     <use transform="translate(29.525547 -29.446875)scale(0.7)" xlink:href="#ArialMT-99"/>
     <use transform="translate(65.745188 -50.355)scale(0.49)" xlink:href="#ArialMT-49"/>
    </g>
   </g>
   <g id="text_4">
    <!-- $I_{c_2}$ -->
    <defs>
     <path d="M 50.34375 8.453125 
L 50.34375 0 
L 3.03125 0 
Q 2.9375 3.171875 4.046875 6.109375 
Q 5.859375 10.9375 9.828125 15.625 
Q 13.8125 20.3125 21.34375 26.46875 
Q 33.015625 36.03125 37.109375 41.625 
Q 41.21875 47.21875 41.21875 52.203125 
Q 41.21875 57.421875 37.46875 61 
Q 33.734375 64.59375 27.734375 64.59375 
Q 21.390625 64.59375 17.578125 60.78125 
Q 13.765625 56.984375 13.71875 50.25 
L 4.6875 51.171875 
Q 5.609375 61.28125 11.65625 66.578125 
Q 17.71875 71.875 27.9375 71.875 
Q 38.234375 71.875 44.234375 66.15625 
Q 50.25 60.453125 50.25 52 
Q 50.25 47.703125 48.484375 43.546875 
Q 46.734375 39.40625 42.65625 34.8125 
Q 38.578125 30.21875 29.109375 22.21875 
Q 21.1875 15.578125 18.9375 13.203125 
Q 16.703125 10.84375 15.234375 8.453125 
z
" id="ArialMT-50"/>
    </defs>
    <g transform="translate(243.16 74.7675)scale(0.16 -0.16)">
     <use transform="translate(0 0.421875)" xlink:href="#ArialMT-73"/>
     <use transform="translate(29.525547 -29.446875)scale(0.7)" xlink:href="#ArialMT-99"/>
     <use transform="translate(65.745188 -50.355)scale(0.49)" xlink:href="#ArialMT-50"/>
    </g>
   </g>
   <g id="text_5">
    <!-- 2 -->
    <g transform="translate(237.49 123.12375)scale(0.16 -0.16)">
     <use xlink:href="#ArialMT-50"/>
    </g>
   </g>
   <g id="text_6">
    <!-- $\Phi$ -->
    <defs>
     <path d="M 35.15625 73.734375 
L 44.625 73.734375 
L 44.625 64.890625 
Q 59.671875 63.96875 67.65625 56.109375 
Q 75.640625 48.25 75.640625 36.578125 
Q 75.640625 23.484375 66.984375 15.90625 
Q 58.34375 8.34375 44.625 7.859375 
L 44.625 -2.59375 
L 35.15625 -2.59375 
L 35.15625 7.859375 
Q 21.046875 8.40625 12.59375 16.1875 
Q 4.15625 23.96875 4.15625 36.140625 
Q 4.15625 44.09375 7.8125 50.53125 
Q 11.46875 56.984375 18.15625 60.6875 
Q 24.859375 64.40625 35.15625 64.890625 
z
M 35.15625 56.6875 
Q 25.09375 56.390625 19.546875 51.171875 
Q 14.015625 45.953125 14.015625 36.1875 
Q 14.015625 26.3125 20.0625 21.1875 
Q 26.125 16.0625 35.15625 15.921875 
z
M 44.625 15.921875 
Q 54.640625 16.21875 60.296875 21.53125 
Q 65.96875 26.859375 65.96875 36.328125 
Q 65.96875 45.3125 60.546875 51 
Q 55.125 56.6875 44.625 56.6875 
z
" id="ArialMT-934"/>
    </defs>
    <g transform="translate(176.82 76.07625)scale(0.16 -0.16)">
     <use transform="translate(0 0.265625)" xlink:href="#ArialMT-934"/>
    </g>
   </g>
  </g>
 </g>
 <defs>
  <clipPath id="p80c41ebc9d">
   <rect height="131.1669" width="238.14" x="15.55" y="16.14855"/>
  </clipPath>
 </defs>
</svg>
